<svg width="191" height="174" viewBox="0 0 191 174" fill="none" xmlns="http://www.w3.org/2000/svg">
<path d="M95.5 0.5C147.967 0.5 190.5 43.033 190.5 95.5V167.308C190.5 170.728 187.728 173.5 184.308 173.5H6.69238C3.27247 173.5 0.5 170.728 0.5 167.308V95.5C0.5 43.0329 43.033 0.5 95.5 0.5Z" fill="#2E2E2E" stroke="#E5E5E5"/>
<rect x="16.5" y="120.5" width="158" height="37" rx="5.5" fill="#3B9AB8"/>
<rect x="16.5" y="120.5" width="158" height="37" rx="5.5" stroke="#232323"/>
<path d="M81.1932 137C81.0838 136.665 80.9396 136.365 80.7607 136.1C80.585 135.832 80.3745 135.603 80.1293 135.414C79.8873 135.225 79.6122 135.081 79.304 134.982C78.9957 134.882 78.6577 134.832 78.2898 134.832C77.6866 134.832 77.138 134.988 76.6442 135.3C76.1503 135.611 75.7576 136.07 75.4659 136.677C75.1742 137.283 75.0284 138.027 75.0284 138.909C75.0284 139.791 75.1759 140.535 75.4709 141.141C75.7659 141.748 76.1652 142.207 76.669 142.518C77.1728 142.83 77.7396 142.986 78.3693 142.986C78.9527 142.986 79.4664 142.862 79.9105 142.613C80.358 142.361 80.706 142.006 80.9545 141.549C81.2064 141.088 81.3324 140.546 81.3324 139.923L81.7102 140.003H78.6477V138.909H82.5256V140.003C82.5256 140.841 82.3466 141.571 81.9886 142.19C81.634 142.81 81.1435 143.291 80.517 143.632C79.8939 143.97 79.178 144.139 78.3693 144.139C77.4678 144.139 76.6757 143.927 75.9929 143.503C75.3134 143.079 74.7831 142.475 74.402 141.693C74.0241 140.911 73.8352 139.983 73.8352 138.909C73.8352 138.104 73.9429 137.379 74.1584 136.737C74.3771 136.09 74.6854 135.54 75.0831 135.086C75.4808 134.632 75.9515 134.284 76.495 134.042C77.0386 133.8 77.6368 133.679 78.2898 133.679C78.8267 133.679 79.3272 133.76 79.7912 133.923C80.2585 134.082 80.6745 134.309 81.0391 134.604C81.407 134.895 81.7135 135.245 81.9588 135.653C82.2041 136.057 82.3731 136.506 82.4659 137H81.1932ZM87.5804 144.159C86.891 144.159 86.2862 143.995 85.7658 143.667C85.2488 143.339 84.8444 142.88 84.5527 142.29C84.2644 141.7 84.1202 141.01 84.1202 140.222C84.1202 139.426 84.2644 138.732 84.5527 138.138C84.8444 137.545 85.2488 137.085 85.7658 136.756C86.2862 136.428 86.891 136.264 87.5804 136.264C88.2698 136.264 88.873 136.428 89.3901 136.756C89.9105 137.085 90.3148 137.545 90.6032 138.138C90.8948 138.732 91.0407 139.426 91.0407 140.222C91.0407 141.01 90.8948 141.7 90.6032 142.29C90.3148 142.88 89.9105 143.339 89.3901 143.667C88.873 143.995 88.2698 144.159 87.5804 144.159ZM87.5804 143.105C88.1041 143.105 88.535 142.971 88.873 142.702C89.2111 142.434 89.4614 142.081 89.6238 141.643C89.7862 141.206 89.8674 140.732 89.8674 140.222C89.8674 139.711 89.7862 139.236 89.6238 138.795C89.4614 138.354 89.2111 137.998 88.873 137.726C88.535 137.454 88.1041 137.318 87.5804 137.318C87.0568 137.318 86.6259 137.454 86.2878 137.726C85.9498 137.998 85.6995 138.354 85.5371 138.795C85.3747 139.236 85.2935 139.711 85.2935 140.222C85.2935 140.732 85.3747 141.206 85.5371 141.643C85.6995 142.081 85.9498 142.434 86.2878 142.702C86.6259 142.971 87.0568 143.105 87.5804 143.105ZM96.9283 144V133.818H100.369C101.167 133.818 101.82 133.962 102.327 134.251C102.838 134.536 103.216 134.922 103.461 135.409C103.706 135.896 103.829 136.44 103.829 137.04C103.829 137.64 103.706 138.185 103.461 138.675C103.219 139.166 102.844 139.557 102.337 139.849C101.83 140.137 101.181 140.281 100.388 140.281H97.9226V139.188H100.349C100.896 139.188 101.335 139.093 101.666 138.904C101.998 138.715 102.238 138.46 102.387 138.138C102.54 137.814 102.616 137.447 102.616 137.04C102.616 136.632 102.54 136.268 102.387 135.946C102.238 135.625 101.996 135.373 101.661 135.19C101.326 135.005 100.882 134.912 100.329 134.912H98.1612V144H96.9283ZM105.656 144V136.364H106.789V137.517H106.869C107.008 137.139 107.26 136.833 107.625 136.597C107.989 136.362 108.4 136.244 108.858 136.244C108.944 136.244 109.051 136.246 109.181 136.249C109.31 136.253 109.408 136.258 109.474 136.264V137.457C109.434 137.447 109.343 137.433 109.201 137.413C109.061 137.389 108.914 137.378 108.758 137.378C108.387 137.378 108.056 137.456 107.764 137.612C107.475 137.764 107.247 137.976 107.078 138.248C106.912 138.516 106.829 138.823 106.829 139.168V144H105.656ZM113.735 144.159C113.045 144.159 112.44 143.995 111.92 143.667C111.403 143.339 110.999 142.88 110.707 142.29C110.419 141.7 110.275 141.01 110.275 140.222C110.275 139.426 110.419 138.732 110.707 138.138C110.999 137.545 111.403 137.085 111.92 136.756C112.44 136.428 113.045 136.264 113.735 136.264C114.424 136.264 115.027 136.428 115.544 136.756C116.065 137.085 116.469 137.545 116.757 138.138C117.049 138.732 117.195 139.426 117.195 140.222C117.195 141.01 117.049 141.7 116.757 142.29C116.469 142.88 116.065 143.339 115.544 143.667C115.027 143.995 114.424 144.159 113.735 144.159ZM113.735 143.105C114.258 143.105 114.689 142.971 115.027 142.702C115.365 142.434 115.616 142.081 115.778 141.643C115.94 141.206 116.022 140.732 116.022 140.222C116.022 139.711 115.94 139.236 115.778 138.795C115.616 138.354 115.365 137.998 115.027 137.726C114.689 137.454 114.258 137.318 113.735 137.318C113.211 137.318 112.78 137.454 112.442 137.726C112.104 137.998 111.854 138.354 111.691 138.795C111.529 139.236 111.448 139.711 111.448 140.222C111.448 140.732 111.529 141.206 111.691 141.643C111.854 142.081 112.104 142.434 112.442 142.702C112.78 142.971 113.211 143.105 113.735 143.105Z" fill="white"/>
<path d="M67.3207 48.0795C67.226 47.7727 67.0953 47.4981 66.9286 47.2557C66.7658 47.0095 66.5688 46.7992 66.3377 46.625C66.1105 46.4508 65.8491 46.3201 65.5536 46.233C65.2582 46.142 64.9362 46.0966 64.5877 46.0966C63.9627 46.0966 63.4059 46.2538 62.9173 46.5682C62.4286 46.8826 62.0442 47.3447 61.7639 47.9545C61.4873 48.5606 61.3491 49.2992 61.3491 50.1705C61.3491 51.0492 61.4873 51.7936 61.7639 52.4034C62.0404 53.0133 62.4248 53.4773 62.9173 53.7955C63.4097 54.1098 63.9817 54.267 64.6332 54.267C65.2241 54.267 65.7355 54.1534 66.1673 53.9261C66.6029 53.6989 66.9381 53.3769 67.173 52.9602C67.4078 52.5398 67.5252 52.0473 67.5252 51.483L68.0025 51.5568H64.8434V49.9091H69.565V51.3068C69.565 52.303 69.3529 53.1648 68.9286 53.892C68.5044 54.6193 67.9211 55.1799 67.1786 55.5739C66.4362 55.964 65.5839 56.1591 64.6218 56.1591C63.5498 56.1591 62.6086 55.9186 61.798 55.4375C60.9911 54.9527 60.3605 54.2652 59.9059 53.375C59.4552 52.4811 59.2298 51.4205 59.2298 50.1932C59.2298 49.2538 59.3623 48.4148 59.6275 47.6761C59.8964 46.9375 60.2714 46.3106 60.7525 45.7955C61.2336 45.2765 61.798 44.8826 62.4457 44.6136C63.0934 44.3409 63.798 44.2045 64.5593 44.2045C65.2033 44.2045 65.8036 44.2992 66.3605 44.4886C66.9173 44.6742 67.4116 44.9394 67.8434 45.2841C68.279 45.6288 68.637 46.0379 68.9173 46.5114C69.1976 46.9848 69.3813 47.5076 69.4684 48.0795H67.3207ZM75.0561 56.1705C74.1811 56.1705 73.4254 55.9886 72.789 55.625C72.1565 55.2576 71.6697 54.7386 71.3288 54.0682C70.9879 53.3939 70.8174 52.6004 70.8174 51.6875C70.8174 50.7898 70.9879 50.0019 71.3288 49.3239C71.6735 48.642 72.1546 48.1117 72.772 47.733C73.3894 47.3504 74.1148 47.1591 74.9481 47.1591C75.486 47.1591 75.9936 47.2462 76.4709 47.4205C76.9519 47.5909 77.3762 47.8561 77.7436 48.2159C78.1148 48.5758 78.4065 49.0341 78.6186 49.5909C78.8307 50.1439 78.9368 50.803 78.9368 51.5682V52.1989H71.7834V50.8125H76.9652C76.9614 50.4186 76.8762 50.0682 76.7095 49.7614C76.5428 49.4508 76.3099 49.2064 76.0106 49.0284C75.7152 48.8504 75.3705 48.7614 74.9765 48.7614C74.5561 48.7614 74.1868 48.8636 73.8686 49.0682C73.5504 49.2689 73.3023 49.5341 73.1243 49.8636C72.95 50.1894 72.861 50.5473 72.8572 50.9375V52.1477C72.8572 52.6553 72.95 53.0909 73.1356 53.4545C73.3212 53.8144 73.5807 54.0909 73.914 54.2841C74.2474 54.4735 74.6375 54.5682 75.0845 54.5682C75.3837 54.5682 75.6546 54.5265 75.897 54.4432C76.1394 54.3561 76.3496 54.2292 76.5277 54.0625C76.7057 53.8958 76.8402 53.6894 76.9311 53.4432L78.8515 53.6591C78.7303 54.1667 78.4993 54.6098 78.1584 54.9886C77.8212 55.3636 77.3894 55.6553 76.8629 55.8636C76.3364 56.0682 75.7341 56.1705 75.0561 56.1705ZM84.7148 47.2727V48.8636H79.6977V47.2727H84.7148ZM80.9364 45.1818H82.9932V53.375C82.9932 53.6515 83.0348 53.8636 83.1182 54.0114C83.2053 54.1553 83.3189 54.2538 83.4591 54.3068C83.5992 54.3598 83.7545 54.3864 83.925 54.3864C84.0538 54.3864 84.1712 54.3769 84.2773 54.358C84.3871 54.339 84.4705 54.322 84.5273 54.3068L84.8739 55.9148C84.764 55.9527 84.6068 55.9943 84.4023 56.0398C84.2015 56.0852 83.9553 56.1117 83.6636 56.1193C83.1485 56.1345 82.6845 56.0568 82.2716 55.8864C81.8587 55.7121 81.5311 55.4432 81.2886 55.0795C81.05 54.7159 80.9326 54.2614 80.9364 53.7159V45.1818ZM94.1841 47.2727V48.8636H89.0251V47.2727H94.1841ZM90.3148 56V46.4489C90.3148 45.8617 90.436 45.3731 90.6785 44.983C90.9247 44.5928 91.2542 44.3011 91.6671 44.108C92.08 43.9148 92.5383 43.8182 93.0421 43.8182C93.3982 43.8182 93.7144 43.8466 93.991 43.9034C94.2675 43.9602 94.472 44.0114 94.6046 44.0568L94.1955 45.6477C94.1084 45.6212 93.9985 45.5947 93.866 45.5682C93.7334 45.5379 93.5857 45.5227 93.4228 45.5227C93.0402 45.5227 92.7694 45.6155 92.6103 45.8011C92.455 45.983 92.3773 46.2443 92.3773 46.5852V56H90.3148ZM97.6894 56.1761C97.1364 56.1761 96.6383 56.0777 96.1951 55.8807C95.7557 55.6799 95.4072 55.3845 95.1497 54.9943C94.8959 54.6042 94.769 54.1231 94.769 53.5511C94.769 53.0587 94.8599 52.6515 95.0417 52.3295C95.2235 52.0076 95.4716 51.75 95.786 51.5568C96.1004 51.3636 96.4546 51.2178 96.8485 51.1193C97.2463 51.017 97.6572 50.9432 98.0815 50.8977C98.5928 50.8447 99.0076 50.7973 99.3258 50.7557C99.644 50.7102 99.875 50.642 100.019 50.5511C100.167 50.4564 100.241 50.3106 100.241 50.1136V50.0795C100.241 49.6515 100.114 49.3201 99.8599 49.0852C99.6061 48.8504 99.2406 48.733 98.7633 48.733C98.2595 48.733 97.8599 48.8428 97.5644 49.0625C97.2728 49.2822 97.0758 49.5417 96.9735 49.8409L95.0531 49.5682C95.2046 49.0379 95.4546 48.5947 95.8031 48.2386C96.1516 47.8788 96.5777 47.6098 97.0815 47.4318C97.5853 47.25 98.1421 47.1591 98.7519 47.1591C99.1724 47.1591 99.5909 47.2083 100.008 47.3068C100.424 47.4053 100.805 47.5682 101.15 47.7955C101.494 48.0189 101.771 48.3239 101.979 48.7102C102.191 49.0966 102.297 49.5795 102.297 50.1591V56H100.32V54.8011H100.252C100.127 55.0436 99.9508 55.2708 99.7235 55.483C99.5 55.6913 99.2178 55.8598 98.8769 55.9886C98.5398 56.1136 98.144 56.1761 97.6894 56.1761ZM98.2235 54.6648C98.6364 54.6648 98.9944 54.5833 99.2974 54.4205C99.6004 54.2538 99.8334 54.0341 99.9963 53.7614C100.163 53.4886 100.246 53.1913 100.246 52.8693V51.8409C100.182 51.8939 100.072 51.9432 99.9167 51.9886C99.7652 52.0341 99.5947 52.0739 99.4053 52.108C99.2159 52.142 99.0284 52.1723 98.8428 52.1989C98.6572 52.2254 98.4963 52.2481 98.3599 52.267C98.0531 52.3087 97.7784 52.3769 97.536 52.4716C97.2936 52.5663 97.1023 52.6989 96.9622 52.8693C96.822 53.036 96.7519 53.2519 96.7519 53.517C96.7519 53.8958 96.8902 54.1818 97.1667 54.375C97.4432 54.5682 97.7955 54.6648 98.2235 54.6648ZM110.943 49.5795L109.068 49.7841C109.015 49.5947 108.922 49.4167 108.79 49.25C108.661 49.0833 108.487 48.9489 108.267 48.8466C108.047 48.7443 107.779 48.6932 107.46 48.6932C107.032 48.6932 106.672 48.786 106.381 48.9716C106.093 49.1572 105.951 49.3977 105.955 49.6932C105.951 49.947 106.044 50.1534 106.233 50.3125C106.426 50.4716 106.744 50.6023 107.188 50.7045L108.676 51.0227C109.502 51.2008 110.116 51.483 110.517 51.8693C110.922 52.2557 111.127 52.7614 111.131 53.3864C111.127 53.9356 110.966 54.4205 110.648 54.8409C110.333 55.2576 109.896 55.5833 109.335 55.8182C108.775 56.053 108.131 56.1705 107.404 56.1705C106.335 56.1705 105.475 55.947 104.824 55.5C104.172 55.0492 103.784 54.4223 103.659 53.6193L105.665 53.4261C105.756 53.8201 105.949 54.1174 106.244 54.3182C106.54 54.5189 106.924 54.6193 107.398 54.6193C107.886 54.6193 108.279 54.5189 108.574 54.3182C108.873 54.1174 109.023 53.8693 109.023 53.5739C109.023 53.3239 108.926 53.1174 108.733 52.9545C108.544 52.7917 108.248 52.6667 107.847 52.5795L106.358 52.267C105.521 52.0928 104.902 51.7992 104.5 51.3864C104.099 50.9697 103.9 50.4432 103.904 49.8068C103.9 49.2689 104.046 48.803 104.341 48.4091C104.64 48.0114 105.055 47.7045 105.585 47.4886C106.119 47.2689 106.735 47.1591 107.432 47.1591C108.455 47.1591 109.26 47.3769 109.847 47.8125C110.438 48.2481 110.803 48.8371 110.943 49.5795ZM116.865 47.2727V48.8636H111.848V47.2727H116.865ZM113.086 45.1818H115.143V53.375C115.143 53.6515 115.185 53.8636 115.268 54.0114C115.355 54.1553 115.469 54.2538 115.609 54.3068C115.749 54.3598 115.905 54.3864 116.075 54.3864C116.204 54.3864 116.321 54.3769 116.427 54.358C116.537 54.339 116.62 54.322 116.677 54.3068L117.024 55.9148C116.914 55.9527 116.757 55.9943 116.552 56.0398C116.352 56.0852 116.105 56.1117 115.814 56.1193C115.298 56.1345 114.834 56.0568 114.422 55.8864C114.009 55.7121 113.681 55.4432 113.439 55.0795C113.2 54.7159 113.083 54.2614 113.086 53.7159V45.1818ZM122.035 56.1705C121.16 56.1705 120.404 55.9886 119.768 55.625C119.135 55.2576 118.648 54.7386 118.308 54.0682C117.967 53.3939 117.796 52.6004 117.796 51.6875C117.796 50.7898 117.967 50.0019 118.308 49.3239C118.652 48.642 119.133 48.1117 119.751 47.733C120.368 47.3504 121.094 47.1591 121.927 47.1591C122.465 47.1591 122.972 47.2462 123.45 47.4205C123.931 47.5909 124.355 47.8561 124.722 48.2159C125.094 48.5758 125.385 49.0341 125.597 49.5909C125.809 50.1439 125.916 50.803 125.916 51.5682V52.1989H118.762V50.8125H123.944C123.94 50.4186 123.855 50.0682 123.688 49.7614C123.522 49.4508 123.289 49.2064 122.989 49.0284C122.694 48.8504 122.349 48.7614 121.955 48.7614C121.535 48.7614 121.166 48.8636 120.847 49.0682C120.529 49.2689 120.281 49.5341 120.103 49.8636C119.929 50.1894 119.84 50.5473 119.836 50.9375V52.1477C119.836 52.6553 119.929 53.0909 120.114 53.4545C120.3 53.8144 120.559 54.0909 120.893 54.2841C121.226 54.4735 121.616 54.5682 122.063 54.5682C122.362 54.5682 122.633 54.5265 122.876 54.4432C123.118 54.3561 123.328 54.2292 123.506 54.0625C123.684 53.8958 123.819 53.6894 123.91 53.4432L125.83 53.6591C125.709 54.1667 125.478 54.6098 125.137 54.9886C124.8 55.3636 124.368 55.6553 123.842 55.8636C123.315 56.0682 122.713 56.1705 122.035 56.1705ZM127.336 56V47.2727H129.33V48.7273H129.421C129.58 48.2235 129.853 47.8352 130.239 47.5625C130.629 47.286 131.074 47.1477 131.574 47.1477C131.688 47.1477 131.815 47.1534 131.955 47.1648C132.099 47.1723 132.218 47.1856 132.313 47.2045V49.0966C132.226 49.0663 132.087 49.0398 131.898 49.017C131.712 48.9905 131.533 48.9773 131.358 48.9773C130.983 48.9773 130.646 49.0587 130.347 49.2216C130.051 49.3807 129.819 49.6023 129.648 49.8864C129.478 50.1705 129.392 50.4981 129.392 50.8693V56H127.336ZM60.2894 80.1761C59.7364 80.1761 59.2383 80.0777 58.7951 79.8807C58.3557 79.6799 58.0072 79.3845 57.7497 78.9943C57.4959 78.6042 57.369 78.1231 57.369 77.5511C57.369 77.0587 57.4599 76.6515 57.6417 76.3295C57.8235 76.0076 58.0716 75.75 58.386 75.5568C58.7004 75.3636 59.0546 75.2178 59.4485 75.1193C59.8462 75.017 60.2572 74.9432 60.6815 74.8977C61.1928 74.8447 61.6076 74.7973 61.9258 74.7557C62.244 74.7102 62.475 74.642 62.619 74.5511C62.7667 74.4564 62.8406 74.3106 62.8406 74.1136V74.0795C62.8406 73.6515 62.7137 73.3201 62.4599 73.0852C62.2061 72.8504 61.8406 72.733 61.3633 72.733C60.8595 72.733 60.4599 72.8428 60.1644 73.0625C59.8728 73.2822 59.6758 73.5417 59.5735 73.8409L57.6531 73.5682C57.8046 73.0379 58.0546 72.5947 58.4031 72.2386C58.7516 71.8788 59.1777 71.6098 59.6815 71.4318C60.1853 71.25 60.7421 71.1591 61.3519 71.1591C61.7724 71.1591 62.1909 71.2083 62.6076 71.3068C63.0243 71.4053 63.405 71.5682 63.7497 71.7955C64.0944 72.0189 64.3709 72.3239 64.5792 72.7102C64.7913 73.0966 64.8974 73.5795 64.8974 74.1591V80H62.9201V78.8011H62.8519C62.7269 79.0436 62.5508 79.2708 62.3235 79.483C62.1 79.6913 61.8178 79.8598 61.4769 79.9886C61.1398 80.1136 60.744 80.1761 60.2894 80.1761ZM60.8235 78.6648C61.2364 78.6648 61.5944 78.5833 61.8974 78.4205C62.2004 78.2538 62.4334 78.0341 62.5962 77.7614C62.7629 77.4886 62.8462 77.1913 62.8462 76.8693V75.8409C62.7819 75.8939 62.672 75.9432 62.5167 75.9886C62.3652 76.0341 62.1947 76.0739 62.0053 76.108C61.8159 76.142 61.6284 76.1723 61.4428 76.1989C61.2572 76.2254 61.0962 76.2481 60.9599 76.267C60.6531 76.3087 60.3784 76.3769 60.136 76.4716C59.8936 76.5663 59.7023 76.6989 59.5622 76.8693C59.422 77.036 59.3519 77.2519 59.3519 77.517C59.3519 77.8958 59.4902 78.1818 59.7667 78.375C60.0432 78.5682 60.3955 78.6648 60.8235 78.6648ZM68.7024 74.8864V80H66.6456V71.2727H68.6115V72.7557H68.7137C68.9145 72.267 69.2346 71.8788 69.674 71.5909C70.1172 71.303 70.6645 71.1591 71.316 71.1591C71.9183 71.1591 72.4429 71.2879 72.8899 71.5455C73.3406 71.803 73.6891 72.1761 73.9353 72.6648C74.1853 73.1534 74.3084 73.7462 74.3047 74.4432V80H72.2478V74.7614C72.2478 74.178 72.0963 73.7216 71.7933 73.392C71.4941 73.0625 71.0793 72.8977 70.549 72.8977C70.1891 72.8977 69.8691 72.9773 69.5887 73.1364C69.3122 73.2917 69.0944 73.517 68.9353 73.8125C68.78 74.108 68.7024 74.4659 68.7024 74.8864ZM79.3142 80.1534C78.6286 80.1534 78.015 79.9773 77.4733 79.625C76.9316 79.2727 76.5036 78.7614 76.1892 78.0909C75.8748 77.4205 75.7176 76.6061 75.7176 75.6477C75.7176 74.678 75.8767 73.8598 76.1949 73.1932C76.5169 72.5227 76.9506 72.017 77.496 71.6761C78.0415 71.3314 78.6494 71.1591 79.3199 71.1591C79.8312 71.1591 80.2517 71.2462 80.5812 71.4205C80.9108 71.5909 81.1722 71.7973 81.3653 72.0398C81.5585 72.2784 81.7081 72.5038 81.8142 72.7159H81.8994V68.3636H83.9619V80H81.9392V78.625H81.8142C81.7081 78.8371 81.5547 79.0625 81.354 79.3011C81.1532 79.536 80.8881 79.7367 80.5585 79.9034C80.229 80.0701 79.8142 80.1534 79.3142 80.1534ZM79.8881 78.4659C80.3237 78.4659 80.6949 78.3485 81.0017 78.1136C81.3085 77.875 81.5415 77.5436 81.7006 77.1193C81.8597 76.6951 81.9392 76.2008 81.9392 75.6364C81.9392 75.072 81.8597 74.5814 81.7006 74.1648C81.5453 73.7481 81.3142 73.4242 81.0074 73.1932C80.7044 72.9621 80.3312 72.8466 79.8881 72.8466C79.4297 72.8466 79.0472 72.9659 78.7403 73.2045C78.4335 73.4432 78.2025 73.7727 78.0472 74.1932C77.8919 74.6136 77.8142 75.0947 77.8142 75.6364C77.8142 76.1818 77.8919 76.6686 78.0472 77.0966C78.2062 77.5208 78.4392 77.8561 78.746 78.1023C79.0566 78.3447 79.4373 78.4659 79.8881 78.4659ZM89.5733 80V68.3636H91.6302V72.7159H91.7154C91.8215 72.5038 91.9711 72.2784 92.1643 72.0398C92.3574 71.7973 92.6188 71.5909 92.9483 71.4205C93.2779 71.2462 93.6983 71.1591 94.2097 71.1591C94.884 71.1591 95.4919 71.3314 96.0336 71.6761C96.579 72.017 97.0108 72.5227 97.329 73.1932C97.651 73.8598 97.812 74.678 97.812 75.6477C97.812 76.6061 97.6548 77.4205 97.3404 78.0909C97.026 78.7614 96.598 79.2727 96.0563 79.625C95.5146 79.9773 94.901 80.1534 94.2154 80.1534C93.7154 80.1534 93.3006 80.0701 92.9711 79.9034C92.6415 79.7367 92.3764 79.536 92.1756 79.3011C91.9787 79.0625 91.8252 78.8371 91.7154 78.625H91.5961V80H89.5733ZM91.5904 75.6364C91.5904 76.2008 91.6699 76.6951 91.829 77.1193C91.9919 77.5436 92.2249 77.875 92.5279 78.1136C92.8347 78.3485 93.2059 78.4659 93.6415 78.4659C94.0961 78.4659 94.4768 78.3447 94.7836 78.1023C95.0904 77.8561 95.3215 77.5208 95.4768 77.0966C95.6358 76.6686 95.7154 76.1818 95.7154 75.6364C95.7154 75.0947 95.6377 74.6136 95.4824 74.1932C95.3271 73.7727 95.0961 73.4432 94.7893 73.2045C94.4824 72.9659 94.0999 72.8466 93.6415 72.8466C93.2021 72.8466 92.829 72.9621 92.5222 73.1932C92.2154 73.4242 91.9824 73.7481 91.8233 74.1648C91.668 74.5814 91.5904 75.072 91.5904 75.6364ZM103.104 80.1705C102.229 80.1705 101.474 79.9886 100.837 79.625C100.205 79.2576 99.7178 78.7386 99.3769 78.0682C99.036 77.3939 98.8656 76.6004 98.8656 75.6875C98.8656 74.7898 99.036 74.0019 99.3769 73.3239C99.7216 72.642 100.203 72.1117 100.82 71.733C101.438 71.3504 102.163 71.1591 102.996 71.1591C103.534 71.1591 104.042 71.2462 104.519 71.4205C105 71.5909 105.424 71.8561 105.792 72.2159C106.163 72.5758 106.455 73.0341 106.667 73.5909C106.879 74.1439 106.985 74.803 106.985 75.5682V76.1989H99.8315V74.8125H105.013C105.01 74.4186 104.924 74.0682 104.758 73.7614C104.591 73.4508 104.358 73.2064 104.059 73.0284C103.763 72.8504 103.419 72.7614 103.025 72.7614C102.604 72.7614 102.235 72.8636 101.917 73.0682C101.599 73.2689 101.35 73.5341 101.172 73.8636C100.998 74.1894 100.909 74.5473 100.905 74.9375V76.1477C100.905 76.6553 100.998 77.0909 101.184 77.4545C101.369 77.8144 101.629 78.0909 101.962 78.2841C102.295 78.4735 102.686 78.5682 103.133 78.5682C103.432 78.5682 103.703 78.5265 103.945 78.4432C104.188 78.3561 104.398 78.2292 104.576 78.0625C104.754 77.8958 104.888 77.6894 104.979 77.4432L106.9 77.6591C106.778 78.1667 106.547 78.6098 106.206 78.9886C105.869 79.3636 105.438 79.6553 104.911 79.8636C104.385 80.0682 103.782 80.1705 103.104 80.1705ZM112.763 71.2727V72.8636H107.746V71.2727H112.763ZM108.984 69.1818H111.041V77.375C111.041 77.6515 111.083 77.8636 111.166 78.0114C111.253 78.1553 111.367 78.2538 111.507 78.3068C111.647 78.3598 111.803 78.3864 111.973 78.3864C112.102 78.3864 112.219 78.3769 112.325 78.358C112.435 78.339 112.519 78.322 112.575 78.3068L112.922 79.9148C112.812 79.9527 112.655 79.9943 112.45 80.0398C112.25 80.0852 112.003 80.1117 111.712 80.1193C111.197 80.1345 110.733 80.0568 110.32 79.8864C109.907 79.7121 109.579 79.4432 109.337 79.0795C109.098 78.7159 108.981 78.2614 108.984 77.7159V69.1818ZM118.521 71.2727V72.8636H113.504V71.2727H118.521ZM114.743 69.1818H116.799V77.375C116.799 77.6515 116.841 77.8636 116.924 78.0114C117.012 78.1553 117.125 78.2538 117.265 78.3068C117.405 78.3598 117.561 78.3864 117.731 78.3864C117.86 78.3864 117.977 78.3769 118.084 78.358C118.193 78.339 118.277 78.322 118.334 78.3068L118.68 79.9148C118.57 79.9527 118.413 79.9943 118.209 80.0398C118.008 80.0852 117.762 80.1117 117.47 80.1193C116.955 80.1345 116.491 80.0568 116.078 79.8864C115.665 79.7121 115.337 79.4432 115.095 79.0795C114.856 78.7159 114.739 78.2614 114.743 77.7159V69.1818ZM123.691 80.1705C122.816 80.1705 122.06 79.9886 121.424 79.625C120.791 79.2576 120.305 78.7386 119.964 78.0682C119.623 77.3939 119.452 76.6004 119.452 75.6875C119.452 74.7898 119.623 74.0019 119.964 73.3239C120.309 72.642 120.79 72.1117 121.407 71.733C122.024 71.3504 122.75 71.1591 123.583 71.1591C124.121 71.1591 124.629 71.2462 125.106 71.4205C125.587 71.5909 126.011 71.8561 126.379 72.2159C126.75 72.5758 127.041 73.0341 127.254 73.5909C127.466 74.1439 127.572 74.803 127.572 75.5682V76.1989H120.418V74.8125H125.6C125.596 74.4186 125.511 74.0682 125.344 73.7614C125.178 73.4508 124.945 73.2064 124.646 73.0284C124.35 72.8504 124.005 72.7614 123.612 72.7614C123.191 72.7614 122.822 72.8636 122.504 73.0682C122.185 73.2689 121.937 73.5341 121.759 73.8636C121.585 74.1894 121.496 74.5473 121.492 74.9375V76.1477C121.492 76.6553 121.585 77.0909 121.771 77.4545C121.956 77.8144 122.216 78.0909 122.549 78.2841C122.882 78.4735 123.273 78.5682 123.719 78.5682C124.019 78.5682 124.29 78.5265 124.532 78.4432C124.774 78.3561 124.985 78.2292 125.163 78.0625C125.341 77.8958 125.475 77.6894 125.566 77.4432L127.487 77.6591C127.365 78.1667 127.134 78.6098 126.793 78.9886C126.456 79.3636 126.024 79.6553 125.498 79.8636C124.971 80.0682 124.369 80.1705 123.691 80.1705ZM128.992 80V71.2727H130.986V72.7273H131.077C131.236 72.2235 131.509 71.8352 131.895 71.5625C132.285 71.286 132.73 71.1477 133.23 71.1477C133.344 71.1477 133.471 71.1534 133.611 71.1648C133.755 71.1723 133.874 71.1856 133.969 71.2045V73.0966C133.882 73.0663 133.744 73.0398 133.554 73.017C133.369 72.9905 133.189 72.9773 133.015 72.9773C132.64 72.9773 132.302 73.0587 132.003 73.2216C131.708 73.3807 131.475 73.6023 131.304 73.8864C131.134 74.1705 131.049 74.4981 131.049 74.8693V80H128.992ZM55.7284 104V92.3636H57.8363V97.2898H63.2284V92.3636H65.342V104H63.2284V99.0568H57.8363V104H55.7284ZM71.0873 104.17C70.2123 104.17 69.4566 103.989 68.8203 103.625C68.1877 103.258 67.701 102.739 67.3601 102.068C67.0191 101.394 66.8487 100.6 66.8487 99.6875C66.8487 98.7898 67.0191 98.0019 67.3601 97.3239C67.7048 96.642 68.1858 96.1117 68.8032 95.733C69.4207 95.3504 70.146 95.1591 70.9794 95.1591C71.5173 95.1591 72.0248 95.2462 72.5021 95.4205C72.9832 95.5909 73.4074 95.8561 73.7748 96.2159C74.146 96.5758 74.4377 97.0341 74.6498 97.5909C74.862 98.1439 74.968 98.803 74.968 99.5682V100.199H67.8146V98.8125H72.9964C72.9926 98.4186 72.9074 98.0682 72.7407 97.7614C72.5741 97.4508 72.3411 97.2064 72.0419 97.0284C71.7464 96.8504 71.4017 96.7614 71.0078 96.7614C70.5873 96.7614 70.218 96.8636 69.8998 97.0682C69.5816 97.2689 69.3335 97.5341 69.1555 97.8636C68.9813 98.1894 68.8923 98.5473 68.8885 98.9375V100.148C68.8885 100.655 68.9813 101.091 69.1669 101.455C69.3525 101.814 69.6119 102.091 69.9453 102.284C70.2786 102.473 70.6688 102.568 71.1157 102.568C71.415 102.568 71.6858 102.527 71.9282 102.443C72.1707 102.356 72.3809 102.229 72.5589 102.062C72.7369 101.896 72.8714 101.689 72.9623 101.443L74.8828 101.659C74.7616 102.167 74.5305 102.61 74.1896 102.989C73.8525 103.364 73.4207 103.655 72.8941 103.864C72.3676 104.068 71.7654 104.17 71.0873 104.17ZM78.8994 104.176C78.3464 104.176 77.8483 104.078 77.4051 103.881C76.9657 103.68 76.6172 103.384 76.3597 102.994C76.1059 102.604 75.979 102.123 75.979 101.551C75.979 101.059 76.0699 100.652 76.2517 100.33C76.4335 100.008 76.6816 99.75 76.996 99.5568C77.3104 99.3636 77.6646 99.2178 78.0585 99.1193C78.4562 99.017 78.8672 98.9432 79.2915 98.8977C79.8028 98.8447 80.2176 98.7973 80.5358 98.7557C80.854 98.7102 81.085 98.642 81.229 98.5511C81.3767 98.4564 81.4506 98.3106 81.4506 98.1136V98.0795C81.4506 97.6515 81.3237 97.3201 81.0699 97.0852C80.8161 96.8504 80.4506 96.733 79.9733 96.733C79.4695 96.733 79.0699 96.8428 78.7744 97.0625C78.4828 97.2822 78.2858 97.5417 78.1835 97.8409L76.2631 97.5682C76.4146 97.0379 76.6646 96.5947 77.0131 96.2386C77.3616 95.8788 77.7877 95.6098 78.2915 95.4318C78.7953 95.25 79.3521 95.1591 79.9619 95.1591C80.3824 95.1591 80.8009 95.2083 81.2176 95.3068C81.6343 95.4053 82.015 95.5682 82.3597 95.7955C82.7044 96.0189 82.9809 96.3239 83.1892 96.7102C83.4013 97.0966 83.5074 97.5795 83.5074 98.1591V104H81.5301V102.801H81.4619C81.3369 103.044 81.1608 103.271 80.9335 103.483C80.71 103.691 80.4278 103.86 80.0869 103.989C79.7498 104.114 79.354 104.176 78.8994 104.176ZM79.4335 102.665C79.8464 102.665 80.2044 102.583 80.5074 102.42C80.8104 102.254 81.0434 102.034 81.2062 101.761C81.3729 101.489 81.4562 101.191 81.4562 100.869V99.8409C81.3919 99.8939 81.282 99.9432 81.1267 99.9886C80.9752 100.034 80.8047 100.074 80.6153 100.108C80.4259 100.142 80.2384 100.172 80.0528 100.199C79.8672 100.225 79.7062 100.248 79.5699 100.267C79.2631 100.309 78.9884 100.377 78.746 100.472C78.5036 100.566 78.3123 100.699 78.1722 100.869C78.032 101.036 77.9619 101.252 77.9619 101.517C77.9619 101.896 78.1002 102.182 78.3767 102.375C78.6532 102.568 79.0055 102.665 79.4335 102.665ZM87.3124 92.3636V104H85.2556V92.3636H87.3124ZM93.4654 95.2727V96.8636H88.4484V95.2727H93.4654ZM89.687 93.1818H91.7438V101.375C91.7438 101.652 91.7855 101.864 91.8688 102.011C91.9559 102.155 92.0696 102.254 92.2097 102.307C92.3499 102.36 92.5052 102.386 92.6756 102.386C92.8044 102.386 92.9218 102.377 93.0279 102.358C93.1377 102.339 93.2211 102.322 93.2779 102.307L93.6245 103.915C93.5146 103.953 93.3574 103.994 93.1529 104.04C92.9521 104.085 92.7059 104.112 92.4143 104.119C91.8991 104.134 91.4351 104.057 91.0222 103.886C90.6093 103.712 90.2817 103.443 90.0393 103.08C89.8006 102.716 89.6832 102.261 89.687 101.716V93.1818ZM97.1099 98.8864V104H95.0531V92.3636H97.0644V96.7557H97.1667C97.3713 96.2633 97.6875 95.875 98.1156 95.5909C98.5474 95.303 99.0966 95.1591 99.7633 95.1591C100.369 95.1591 100.898 95.286 101.349 95.5398C101.799 95.7936 102.148 96.1648 102.394 96.6534C102.644 97.142 102.769 97.7386 102.769 98.4432V104H100.712V98.7614C100.712 98.1742 100.561 97.7178 100.258 97.392C99.9584 97.0625 99.5379 96.8977 98.9963 96.8977C98.6326 96.8977 98.3069 96.9773 98.019 97.1364C97.7349 97.2917 97.5114 97.517 97.3485 97.8125C97.1894 98.108 97.1099 98.4659 97.1099 98.8864ZM108.352 104.17C107.481 104.17 106.733 103.979 106.108 103.597C105.487 103.214 105.008 102.686 104.671 102.011C104.337 101.333 104.171 100.553 104.171 99.6705C104.171 98.7841 104.341 98.0019 104.682 97.3239C105.023 96.642 105.504 96.1117 106.125 95.733C106.75 95.3504 107.489 95.1591 108.341 95.1591C109.049 95.1591 109.676 95.2898 110.222 95.5511C110.771 95.8087 111.208 96.1742 111.534 96.6477C111.86 97.1174 112.046 97.6667 112.091 98.2955H110.125C110.046 97.875 109.856 97.5246 109.557 97.2443C109.261 96.9602 108.866 96.8182 108.369 96.8182C107.949 96.8182 107.58 96.9318 107.261 97.1591C106.943 97.3826 106.695 97.7045 106.517 98.125C106.343 98.5455 106.256 99.0492 106.256 99.6364C106.256 100.231 106.343 100.742 106.517 101.17C106.691 101.595 106.936 101.922 107.25 102.153C107.568 102.381 107.941 102.494 108.369 102.494C108.672 102.494 108.943 102.437 109.182 102.324C109.424 102.206 109.627 102.038 109.79 101.818C109.953 101.598 110.065 101.331 110.125 101.017H112.091C112.042 101.634 111.86 102.182 111.546 102.659C111.231 103.133 110.803 103.504 110.261 103.773C109.72 104.038 109.083 104.17 108.352 104.17ZM115.971 104.176C115.418 104.176 114.92 104.078 114.477 103.881C114.038 103.68 113.689 103.384 113.432 102.994C113.178 102.604 113.051 102.123 113.051 101.551C113.051 101.059 113.142 100.652 113.324 100.33C113.505 100.008 113.754 99.75 114.068 99.5568C114.382 99.3636 114.736 99.2178 115.13 99.1193C115.528 99.017 115.939 98.9432 116.363 98.8977C116.875 98.8447 117.289 98.7973 117.608 98.7557C117.926 98.7102 118.157 98.642 118.301 98.5511C118.449 98.4564 118.522 98.3106 118.522 98.1136V98.0795C118.522 97.6515 118.396 97.3201 118.142 97.0852C117.888 96.8504 117.522 96.733 117.045 96.733C116.541 96.733 116.142 96.8428 115.846 97.0625C115.555 97.2822 115.358 97.5417 115.255 97.8409L113.335 97.5682C113.486 97.0379 113.736 96.5947 114.085 96.2386C114.433 95.8788 114.86 95.6098 115.363 95.4318C115.867 95.25 116.424 95.1591 117.034 95.1591C117.454 95.1591 117.873 95.2083 118.289 95.3068C118.706 95.4053 119.087 95.5682 119.432 95.7955C119.776 96.0189 120.053 96.3239 120.261 96.7102C120.473 97.0966 120.579 97.5795 120.579 98.1591V104H118.602V102.801H118.534C118.409 103.044 118.233 103.271 118.005 103.483C117.782 103.691 117.5 103.86 117.159 103.989C116.822 104.114 116.426 104.176 115.971 104.176ZM116.505 102.665C116.918 102.665 117.276 102.583 117.579 102.42C117.882 102.254 118.115 102.034 118.278 101.761C118.445 101.489 118.528 101.191 118.528 100.869V99.8409C118.464 99.8939 118.354 99.9432 118.199 99.9886C118.047 100.034 117.877 100.074 117.687 100.108C117.498 100.142 117.31 100.172 117.125 100.199C116.939 100.225 116.778 100.248 116.642 100.267C116.335 100.309 116.06 100.377 115.818 100.472C115.575 100.566 115.384 100.699 115.244 100.869C115.104 101.036 115.034 101.252 115.034 101.517C115.034 101.896 115.172 102.182 115.449 102.375C115.725 102.568 116.077 102.665 116.505 102.665ZM122.327 104V95.2727H124.322V96.7273H124.413C124.572 96.2235 124.844 95.8352 125.231 95.5625C125.621 95.286 126.066 95.1477 126.566 95.1477C126.68 95.1477 126.807 95.1534 126.947 95.1648C127.091 95.1723 127.21 95.1856 127.305 95.2045V97.0966C127.218 97.0663 127.079 97.0398 126.89 97.017C126.704 96.9905 126.524 96.9773 126.35 96.9773C125.975 96.9773 125.638 97.0587 125.339 97.2216C125.043 97.3807 124.81 97.6023 124.64 97.8864C124.469 98.1705 124.384 98.4981 124.384 98.8693V104H122.327ZM131.855 104.17C130.98 104.17 130.225 103.989 129.588 103.625C128.956 103.258 128.469 102.739 128.128 102.068C127.787 101.394 127.617 100.6 127.617 99.6875C127.617 98.7898 127.787 98.0019 128.128 97.3239C128.473 96.642 128.954 96.1117 129.571 95.733C130.189 95.3504 130.914 95.1591 131.747 95.1591C132.285 95.1591 132.793 95.2462 133.27 95.4205C133.751 95.5909 134.176 95.8561 134.543 96.2159C134.914 96.5758 135.206 97.0341 135.418 97.5909C135.63 98.1439 135.736 98.803 135.736 99.5682V100.199H128.583V98.8125H133.765C133.761 98.4186 133.676 98.0682 133.509 97.7614C133.342 97.4508 133.109 97.2064 132.81 97.0284C132.515 96.8504 132.17 96.7614 131.776 96.7614C131.355 96.7614 130.986 96.8636 130.668 97.0682C130.35 97.2689 130.102 97.5341 129.924 97.8636C129.749 98.1894 129.66 98.5473 129.657 98.9375V100.148C129.657 100.655 129.749 101.091 129.935 101.455C130.121 101.814 130.38 102.091 130.713 102.284C131.047 102.473 131.437 102.568 131.884 102.568C132.183 102.568 132.454 102.527 132.696 102.443C132.939 102.356 133.149 102.229 133.327 102.062C133.505 101.896 133.64 101.689 133.73 101.443L135.651 101.659C135.53 102.167 135.299 102.61 134.958 102.989C134.621 103.364 134.189 103.655 133.662 103.864C133.136 104.068 132.533 104.17 131.855 104.17Z" fill="white"/>
</svg>
