<svg version="1.1" id="Layer_1" xmlns="http://www.w3.org/2000/svg" xmlns:xlink="http://www.w3.org/1999/xlink" x="0px" y="0px"
	 width="100%" viewBox="0 0 2048 2048" enable-background="new 0 0 2048 2048" xml:space="preserve">
<path fill="#FFFFFF" opacity="1.000000" stroke="none" 
	d="
M1364.000000,2049.000000 
	C909.333313,2049.000000 455.166656,2049.000000 1.000000,2049.000000 
	C1.000000,1366.333374 1.000000,683.666687 1.000000,1.000000 
	C683.666687,1.000000 1366.333374,1.000000 2049.000000,1.000000 
	C2049.000000,683.666687 2049.000000,1366.333374 2049.000000,2049.000000 
	C1820.833374,2049.000000 1592.666626,2049.000000 1364.000000,2049.000000 
M711.882874,1536.381836 
	C711.285461,1535.833008 710.688049,1535.284058 710.002197,1534.309326 
	C709.837402,1534.031860 709.593689,1533.897705 709.046936,1533.378174 
	C708.728638,1533.183594 708.410278,1532.989014 708.085388,1532.896484 
	C708.085388,1532.896484 708.181458,1532.861572 707.876282,1532.257446 
	C701.586609,1528.914673 695.296936,1525.572021 688.320740,1521.871582 
	C658.972351,1514.315674 631.048584,1518.768188 603.563721,1531.506104 
	C608.263672,1541.057983 612.709839,1550.093994 617.151123,1559.120117 
	C621.505981,1557.394653 625.329956,1555.754028 629.240234,1554.354126 
	C640.606506,1550.284790 652.174622,1547.401611 664.414795,1548.870605 
	C674.156677,1550.039795 680.534180,1555.891113 681.738647,1565.298828 
	C682.197632,1568.883911 681.813232,1572.576782 681.813232,1577.158691 
	C673.949707,1577.158691 666.148010,1576.949341 658.361511,1577.203857 
	C643.836975,1577.678711 629.473450,1579.200684 615.803711,1584.709961 
	C601.113831,1590.630249 592.169556,1601.087158 590.343750,1617.007812 
	C589.815674,1621.612549 589.787476,1626.353271 590.197449,1630.972412 
	C591.638855,1647.211914 598.634766,1659.986206 614.186462,1666.727783 
	C637.467163,1676.819580 666.374939,1670.058838 682.993774,1650.952148 
	C683.933594,1649.871582 685.491577,1649.328857 686.784119,1649.258911 
	C688.868652,1654.662964 690.826904,1660.121826 693.136658,1665.427979 
	C693.641296,1666.587158 695.382812,1667.917969 696.586243,1667.948853 
	C705.043701,1668.166382 713.509338,1668.064087 722.122375,1668.064087 
	C722.252869,1666.911011 722.422363,1666.108276 722.423218,1665.305420 
	C722.458374,1632.850708 722.512878,1600.395752 722.436707,1567.941284 
	C722.430359,1565.248657 721.527039,1562.558228 721.045898,1559.422241 
	C721.045898,1559.422241 720.961060,1558.985962 721.308228,1558.482788 
	C720.959412,1557.082153 720.610535,1555.681396 720.559387,1553.870117 
	C720.411499,1553.582764 720.263550,1553.295410 720.130615,1552.229248 
	C718.134888,1548.090576 716.139221,1543.951904 714.086609,1539.914917 
	C714.086609,1539.914917 714.196045,1539.875000 714.085327,1539.247437 
	C713.399475,1538.479858 712.713684,1537.712280 711.999634,1536.998779 
	C711.999634,1536.998779 712.055237,1536.973999 711.882874,1536.381836 
M1405.120117,1528.914185 
	C1400.724609,1526.633789 1396.329102,1524.353271 1391.337402,1521.645874 
	C1364.872925,1514.569824 1340.992432,1517.240356 1322.093750,1541.083862 
	C1320.240967,1534.771484 1318.762817,1529.400513 1317.035645,1524.110962 
	C1316.654663,1522.943970 1315.409302,1521.204834 1314.530518,1521.185913 
	C1304.791016,1520.976318 1295.045166,1521.053955 1285.448486,1521.053955 
	C1285.448486,1570.464966 1285.448486,1619.157593 1285.448486,1667.726807 
	C1299.076904,1667.726807 1312.317383,1667.726807 1325.925903,1667.726807 
	C1325.925903,1665.572021 1325.925781,1663.769043 1325.925903,1661.966187 
	C1325.927124,1639.485474 1325.730103,1617.002197 1326.004272,1594.524780 
	C1326.167969,1581.104858 1327.796143,1567.910278 1337.769897,1556.896484 
	C1349.198120,1549.035522 1362.929199,1548.735474 1374.153931,1556.744385 
	C1380.520142,1563.768066 1381.644165,1572.547485 1381.722046,1581.372192 
	C1381.959351,1608.338623 1381.840088,1635.308350 1381.859131,1662.276733 
	C1381.860352,1664.057129 1381.859253,1665.837402 1381.859253,1667.797119 
	C1395.572266,1667.797119 1408.789551,1667.797119 1422.441772,1667.797119 
	C1422.441772,1655.565918 1422.491333,1643.604248 1422.431152,1631.643066 
	C1422.316406,1608.840698 1422.531860,1586.026367 1421.827148,1563.241333 
	C1421.457397,1551.283569 1417.778564,1540.096924 1408.000244,1531.203125 
	C1407.182007,1530.608276 1406.363647,1530.013306 1405.120117,1528.914185 
M1189.839844,1262.694946 
	C1245.834106,1262.721069 1301.830566,1263.063965 1357.821655,1262.658813 
	C1393.610474,1262.399658 1420.129517,1234.660767 1420.119141,1198.846069 
	C1420.103638,1146.017822 1420.131714,1093.189575 1420.112793,1040.361328 
	C1420.111816,1037.881348 1419.834961,1035.401367 1419.906860,1032.306519 
	C1420.283813,1031.300903 1420.660645,1030.295166 1421.707642,1029.069336 
	C1422.474365,1028.456055 1423.307861,1027.909790 1423.998169,1027.219971 
	C1461.801270,989.445862 1499.426392,951.491638 1537.441162,913.931702 
	C1564.319214,887.375244 1565.239990,848.965515 1538.733643,822.253662 
	C1507.070801,790.345398 1475.221558,758.621887 1443.405396,726.866028 
	C1435.760864,719.236023 1427.928589,711.794250 1420.338013,703.710632 
	C1420.150146,703.167664 1419.962402,702.624756 1420.026245,701.160706 
	C1420.038330,644.504700 1420.331177,587.846863 1419.952881,531.193481 
	C1419.739990,499.305847 1391.267700,472.259918 1358.626221,472.181915 
	C1304.468994,472.052490 1250.311279,472.149994 1196.153687,472.189026 
	C1194.365601,472.190308 1192.577881,472.595001 1190.167358,472.532776 
	C1189.168335,472.009308 1188.169434,471.485870 1186.853149,470.351776 
	C1147.798828,431.277863 1108.818237,392.129578 1069.594604,353.226410 
	C1064.824707,348.495514 1059.144531,344.329437 1053.204468,341.193268 
	C1029.155518,328.496155 1000.470825,333.326202 980.204102,353.305237 
	C959.940979,373.280609 939.910095,393.491791 919.819275,413.641357 
	C900.793518,432.722778 881.822083,451.858337 862.204834,471.253143 
	C861.203674,471.767365 860.202515,472.281616 858.339417,472.319031 
	C857.841858,472.275787 857.344238,472.194794 856.846680,472.194611 
	C801.361816,472.175140 745.876831,472.133270 690.392090,472.210510 
	C686.601990,472.215790 682.741577,472.803314 679.035156,473.650696 
	C649.408020,480.424469 629.929443,504.806213 629.903748,535.166565 
	C629.858093,589.151978 629.891052,643.137390 629.907837,697.122803 
	C629.908325,698.778381 630.094238,700.433899 629.950256,702.657227 
	C629.627014,703.410156 629.303772,704.163025 628.348022,705.167419 
	C588.908569,744.585144 549.298279,783.833862 510.091553,823.481689 
	C485.147125,848.706848 486.046509,887.766418 511.256195,912.674805 
	C533.869812,935.018372 556.250671,957.597351 578.766663,980.039917 
	C595.497620,996.716248 612.280701,1013.340332 629.231079,1030.537109 
	C629.362183,1030.679810 629.493286,1030.822632 629.551697,1031.898438 
	C629.557007,1087.678833 629.501221,1143.459229 629.589966,1199.239502 
	C629.645325,1234.036133 656.167542,1262.397339 690.217468,1262.695435 
	C746.825134,1263.191040 803.440857,1262.765869 860.517822,1262.959961 
	C860.687622,1262.927002 860.857422,1262.894043 861.637085,1263.159424 
	C862.747437,1264.162476 863.904785,1265.118652 864.961426,1266.175415 
	C903.469666,1304.686646 941.955994,1343.219727 980.472839,1381.722290 
	C1005.223816,1406.463989 1044.218750,1406.807861 1068.921265,1382.301880 
	C1096.707886,1354.736206 1124.274902,1326.949097 1151.976807,1299.297852 
	C1164.231079,1287.065918 1176.582642,1274.931274 1189.839844,1262.694946 
M1504.771362,1555.457642 
	C1504.771362,1524.214355 1504.771362,1492.971191 1504.771362,1461.664795 
	C1490.823975,1461.664795 1477.570801,1461.664795 1464.272461,1461.664795 
	C1464.272461,1530.545044 1464.272461,1599.109985 1464.272461,1667.802124 
	C1477.848267,1667.802124 1491.092041,1667.802124 1504.812622,1667.802124 
	C1504.812622,1665.744263 1504.812866,1663.950806 1504.812622,1662.157349 
	C1504.810547,1650.158936 1504.734131,1638.159424 1504.886719,1626.162964 
	C1504.909424,1624.383545 1505.486816,1622.019897 1506.705811,1620.950806 
	C1511.536133,1616.714600 1516.723389,1612.885376 1521.989746,1608.738647 
	C1532.754028,1623.689087 1543.240112,1638.267822 1553.744385,1652.833374 
	C1557.342407,1657.822510 1559.999878,1664.678101 1564.886475,1667.215820 
	C1569.774170,1669.754028 1576.911255,1668.017700 1583.062988,1668.052124 
	C1592.284180,1668.103760 1601.506104,1668.065430 1611.659912,1668.065430 
	C1590.400146,1639.764404 1569.779663,1612.314209 1549.152222,1584.854980 
	C1568.893066,1563.488159 1588.147705,1542.647339 1608.124756,1521.024780 
	C1592.670898,1521.024780 1578.387085,1520.987305 1564.104248,1521.095337 
	C1562.946533,1521.104126 1561.477539,1521.823364 1560.689819,1522.696655 
	C1542.742432,1542.593872 1524.863770,1562.553223 1506.995483,1582.521851 
	C1505.774658,1583.885986 1504.732666,1585.410156 1502.892212,1587.781250 
	C1503.564453,1576.385254 1504.152710,1566.412720 1504.771362,1555.457642 
M922.678467,1522.161011 
	C902.045654,1529.176880 888.884644,1543.459106 882.646912,1564.088135 
	C877.140686,1582.297729 876.803528,1600.811035 880.899048,1619.367920 
	C884.014526,1633.484009 891.097168,1645.357422 902.195312,1654.596313 
	C912.153015,1662.885864 923.903870,1667.488403 936.637390,1669.329468 
	C959.422668,1672.623657 981.789551,1671.360962 1003.212646,1662.057983 
	C1004.665405,1661.427246 1006.755432,1659.900513 1006.789856,1658.738281 
	C1007.077759,1649.016235 1006.953491,1639.281982 1006.953491,1630.318848 
	C995.241943,1633.444946 984.036377,1637.170654 972.535095,1639.297607 
	C961.250793,1641.384277 949.679138,1641.878296 938.644409,1637.036499 
	C926.769714,1631.826050 918.234436,1616.991211 920.517761,1604.827637 
	C951.859497,1604.827637 983.279114,1604.827637 1014.963013,1604.827637 
	C1014.963013,1594.830200 1015.440796,1585.199707 1014.870850,1575.631714 
	C1013.335632,1549.858765 997.834778,1529.340698 974.572510,1522.070679 
	C957.603577,1516.767334 940.501282,1516.829712 922.678467,1522.161011 
M1051.668701,1535.500000 
	C1051.668701,1579.569214 1051.668701,1623.638428 1051.668701,1667.721680 
	C1092.067139,1667.721680 1131.773071,1667.721680 1171.477295,1667.721680 
	C1171.477295,1656.315063 1171.477295,1645.267578 1171.477295,1633.798096 
	C1145.158081,1633.798096 1119.245728,1633.798096 1092.885498,1633.798096 
	C1092.885498,1580.310059 1092.885498,1527.251465 1092.885498,1474.161499 
	C1078.886719,1474.161499 1065.345947,1474.161499 1051.668579,1474.161499 
	C1051.668579,1494.526611 1051.668579,1514.513306 1051.668701,1535.500000 
M564.899536,1625.925781 
	C563.584290,1626.488892 562.193115,1626.921753 560.965454,1627.635498 
	C549.196045,1634.479492 536.605286,1638.194580 522.906799,1637.925659 
	C509.816742,1637.668823 500.455597,1631.690918 496.044312,1619.453003 
	C489.893219,1602.388428 490.264282,1585.054077 496.563324,1568.124756 
	C500.800568,1556.736572 510.043732,1551.230225 521.867981,1551.276733 
	C528.741272,1551.303833 535.686035,1552.910889 542.450745,1554.454956 
	C547.693298,1555.651367 552.706482,1557.852295 557.993835,1559.665771 
	C562.038086,1548.986328 565.900452,1538.787354 569.687622,1528.786621 
	C568.987000,1528.167236 568.774353,1527.891113 568.493774,1527.748657 
	C567.752502,1527.372314 566.985107,1527.046143 566.222473,1526.713013 
	C547.548401,1518.559326 528.040527,1516.404907 508.044128,1519.405273 
	C480.653137,1523.515137 461.629883,1538.185059 454.245850,1565.424927 
	C448.474030,1586.717529 448.727020,1608.373169 455.217255,1629.540649 
	C461.138977,1648.853882 473.845184,1661.973633 493.672760,1667.284180 
	C499.903564,1668.953003 506.372559,1670.192017 512.796814,1670.589478 
	C529.564392,1671.626709 546.069641,1670.514160 561.319824,1662.229248 
	C564.121643,1660.707275 565.384155,1659.025146 565.285706,1655.646729 
	C565.004395,1645.991821 565.160889,1636.324341 564.899536,1625.925781 
M812.511719,1569.093506 
	C824.972839,1555.938477 840.869995,1555.320679 857.751526,1557.129761 
	C858.764709,1544.488159 859.754700,1532.135864 860.760620,1519.584106 
	C848.771362,1517.269897 837.546448,1517.651367 826.764648,1522.914062 
	C816.118225,1528.110718 808.579956,1536.762329 801.350891,1547.591797 
	C798.880554,1537.614502 796.854431,1529.431152 794.852478,1521.345581 
	C784.470886,1521.345581 774.387329,1521.345581 764.347046,1521.345581 
	C764.347046,1570.373291 764.347046,1619.084961 764.347046,1667.746948 
	C777.964661,1667.746948 791.209412,1667.746948 804.844543,1667.746948 
	C804.844543,1665.453979 804.844482,1663.485352 804.844543,1661.516846 
	C804.845154,1638.688721 804.905518,1615.860474 804.815552,1593.032715 
	C804.781616,1584.430054 806.777100,1576.565796 812.511719,1569.093506 
M1201.851074,1647.500000 
	C1201.851074,1654.253174 1201.851074,1661.006348 1201.851074,1667.750366 
	C1215.748291,1667.750366 1228.972168,1667.750366 1242.280273,1667.750366 
	C1242.280273,1618.710938 1242.280273,1569.993042 1242.280273,1521.337891 
	C1228.671753,1521.337891 1215.421631,1521.337891 1201.851074,1521.337891 
	C1201.851074,1563.267334 1201.851074,1604.883667 1201.851074,1647.500000 
M1241.790039,1470.921265 
	C1234.731445,1461.873169 1224.927368,1461.692505 1215.074097,1463.432373 
	C1204.197632,1465.352905 1199.950439,1471.438599 1200.076904,1482.890381 
	C1200.197632,1493.806152 1204.773315,1500.022705 1215.397705,1501.633301 
	C1220.818481,1502.454956 1226.681152,1501.932983 1232.095215,1500.814087 
	C1238.330444,1499.525391 1243.186401,1495.253662 1243.683594,1488.661621 
	C1244.107422,1483.043091 1242.727051,1477.288574 1241.790039,1470.921265 
z"/>
<path fill="#0772B9" opacity="1.000000" stroke="none" 
	d="
M628.980469,704.915955 
	C629.303772,704.163025 629.627014,703.410156 630.409302,702.335327 
	C639.210205,693.721558 647.540710,685.418335 655.896179,677.140320 
	C669.936462,663.230286 684.072449,649.415771 698.018188,635.411682 
	C710.287109,623.091492 722.241882,610.458008 734.535583,598.163147 
	C746.594543,586.103210 758.965759,574.356018 771.090454,562.360901 
	C784.288513,549.303833 797.389526,536.148071 810.479858,522.982605 
	C823.002747,510.387756 835.492615,497.759613 847.921204,485.071808 
	C851.807983,481.103973 855.448242,476.894623 859.201355,472.795837 
	C860.202515,472.281616 861.203674,471.767365 862.815369,471.423187 
	C864.736084,471.720795 866.046326,471.959808 867.356506,471.960052 
	C972.407837,471.979797 1077.459229,471.985229 1182.510498,471.940887 
	C1184.063965,471.940247 1185.617065,471.302704 1187.170410,470.962402 
	C1188.169434,471.485870 1189.168335,472.009308 1190.529297,472.983582 
	C1195.036499,477.893738 1199.033081,482.502808 1203.351807,486.787170 
	C1224.754761,508.019531 1246.313965,529.094788 1267.671997,550.372009 
	C1279.018066,561.675049 1290.010864,573.331909 1301.277100,584.716248 
	C1306.181763,589.672302 1311.492920,594.225830 1316.410156,599.170227 
	C1327.406982,610.227661 1338.191528,621.496765 1349.215454,632.526978 
	C1359.502808,642.820435 1370.080933,652.823425 1380.359741,663.125427 
	C1391.000244,673.790100 1401.394287,684.700623 1411.990234,695.410583 
	C1414.385498,697.831665 1417.169434,699.868225 1419.774536,702.081787 
	C1419.962402,702.624756 1420.150146,703.167664 1420.208008,704.365234 
	C1420.381836,708.639038 1420.943359,712.257812 1420.949463,715.877441 
	C1421.010498,752.264038 1421.073853,788.651245 1420.932495,825.037415 
	C1420.870483,840.985596 1420.198608,856.930908 1420.082397,872.879578 
	C1420.029297,880.164978 1420.802246,887.452820 1420.927490,894.744263 
	C1421.083374,903.824707 1420.952515,912.909912 1420.952881,921.993103 
	C1420.954224,954.795837 1420.956909,987.598633 1420.965454,1020.401367 
	C1420.966187,1023.364075 1421.012451,1026.326782 1421.037476,1029.289551 
	C1420.660645,1030.295166 1420.283813,1031.300903 1419.470703,1032.653809 
	C1417.773804,1034.067505 1416.428101,1035.048828 1415.264526,1036.212158 
	C1342.224731,1109.224487 1269.202759,1182.254761 1196.159546,1255.263794 
	C1193.820435,1257.601807 1191.276367,1259.734863 1188.413086,1261.969116 
	C1183.213135,1262.305176 1178.427734,1262.920898 1173.642212,1262.923706 
	C1077.402344,1262.979980 981.162598,1262.995361 884.922852,1262.909912 
	C877.181274,1262.903076 869.440796,1262.097290 861.696716,1261.728149 
	C861.492004,1261.718262 861.251221,1262.466309 861.027283,1262.860962 
	C860.857422,1262.894043 860.687622,1262.927002 860.177124,1262.589111 
	C859.253235,1261.797729 858.670044,1261.376953 858.053589,1260.611816 
	C856.881226,1258.862061 855.858215,1257.340820 854.586365,1256.068359 
	C781.576477,1183.021729 708.549194,1109.992676 635.491821,1036.993652 
	C634.241760,1035.744629 632.605347,1034.882202 631.115967,1033.557495 
	C630.596619,1032.505615 630.110535,1031.735474 629.624451,1030.965454 
	C629.493286,1030.822632 629.362183,1030.679810 629.143738,1029.881104 
	C629.048828,1026.093994 629.012207,1022.962524 629.038269,1019.831604 
	C629.349548,982.419373 629.712769,945.007385 629.939758,907.594666 
	C629.971802,902.308960 629.083130,897.018311 629.101379,891.731628 
	C629.123108,885.443726 629.953857,879.155823 629.913635,872.871216 
	C629.851074,863.087280 629.203796,853.308105 629.071533,843.523376 
	C628.912842,831.782776 629.036438,820.038391 629.034485,808.295654 
	C629.029419,777.669617 629.023621,747.043579 629.014709,716.417542 
	C629.013550,712.583679 628.992371,708.749817 628.980469,704.915955 
M730.717102,613.220093 
	C712.151489,634.521118 696.144165,657.603638 682.793518,682.500244 
	C648.127686,747.145386 632.808594,816.082275 636.781616,889.363403 
	C638.576294,922.466431 644.309753,954.830322 654.614136,986.290894 
	C681.272705,1067.683105 729.122253,1133.956421 798.891113,1183.616333 
	C885.012207,1244.915405 981.085815,1267.096802 1085.392822,1251.492188 
	C1163.991211,1239.733765 1232.701660,1205.999390 1290.437866,1151.445557 
	C1367.858032,1078.292725 1408.790771,987.902710 1413.695801,881.463013 
	C1415.439209,843.629456 1411.460449,806.180908 1401.499390,769.654236 
	C1371.544312,659.810303 1306.468140,577.082092 1206.179932,523.420898 
	C1125.353760,480.173279 1038.966064,468.293060 949.019897,486.066406 
	C862.053406,503.251007 789.686646,546.221863 730.717102,613.220093 
z"/>
<path fill="#41A7AE" opacity="1.000000" stroke="none" 
	d="
M1188.827759,1261.963379 
	C1191.276367,1259.734863 1193.820435,1257.601807 1196.159546,1255.263794 
	C1269.202759,1182.254761 1342.224731,1109.224487 1415.264526,1036.212158 
	C1416.428101,1035.048828 1417.773804,1034.067505 1419.360596,1032.961304 
	C1419.834961,1035.401367 1420.111816,1037.881348 1420.112793,1040.361328 
	C1420.131714,1093.189575 1420.103638,1146.017822 1420.119141,1198.846069 
	C1420.129517,1234.660767 1393.610474,1262.399658 1357.821655,1262.658813 
	C1301.830566,1263.063965 1245.834106,1262.721069 1189.332397,1262.527832 
	C1188.824951,1262.360596 1188.827759,1261.963379 1188.827759,1261.963379 
z"/>
<path fill="#41A7AE" opacity="1.000000" stroke="none" 
	d="
M1419.900391,701.621216 
	C1417.169434,699.868225 1414.385498,697.831665 1411.990234,695.410583 
	C1401.394287,684.700623 1391.000244,673.790100 1380.359741,663.125427 
	C1370.080933,652.823425 1359.502808,642.820435 1349.215454,632.526978 
	C1338.191528,621.496765 1327.406982,610.227661 1316.410156,599.170227 
	C1311.492920,594.225830 1306.181763,589.672302 1301.277100,584.716248 
	C1290.010864,573.331909 1279.018066,561.675049 1267.671997,550.372009 
	C1246.313965,529.094788 1224.754761,508.019531 1203.351807,486.787170 
	C1199.033081,482.502808 1195.036499,477.893738 1190.840576,473.122986 
	C1192.577881,472.595001 1194.365601,472.190308 1196.153687,472.189026 
	C1250.311279,472.149994 1304.468994,472.052490 1358.626221,472.181915 
	C1391.267700,472.259918 1419.739990,499.305847 1419.952881,531.193481 
	C1420.331177,587.846863 1420.038330,644.504700 1419.900391,701.621216 
z"/>
<path fill="#055C80" opacity="1.000000" stroke="none" 
	d="
M1187.011719,470.657074 
	C1185.617065,471.302704 1184.063965,471.940247 1182.510498,471.940887 
	C1077.459229,471.985229 972.407837,471.979797 867.356506,471.960052 
	C866.046326,471.959808 864.736084,471.720795 863.126343,471.281647 
	C881.822083,451.858337 900.793518,432.722778 919.819275,413.641357 
	C939.910095,393.491791 959.940979,373.280609 980.204102,353.305237 
	C1000.470825,333.326202 1029.155518,328.496155 1053.204468,341.193268 
	C1059.144531,344.329437 1064.824707,348.495514 1069.594604,353.226410 
	C1108.818237,392.129578 1147.798828,431.277863 1187.011719,470.657074 
z"/>
<path fill="#41A7AE" opacity="1.000000" stroke="none" 
	d="
M858.770386,472.557434 
	C855.448242,476.894623 851.807983,481.103973 847.921204,485.071808 
	C835.492615,497.759613 823.002747,510.387756 810.479858,522.982605 
	C797.389526,536.148071 784.288513,549.303833 771.090454,562.360901 
	C758.965759,574.356018 746.594543,586.103210 734.535583,598.163147 
	C722.241882,610.458008 710.287109,623.091492 698.018188,635.411682 
	C684.072449,649.415771 669.936462,663.230286 655.896179,677.140320 
	C647.540710,685.418335 639.210205,693.721558 630.531006,702.051453 
	C630.094238,700.433899 629.908325,698.778381 629.907837,697.122803 
	C629.891052,643.137390 629.858093,589.151978 629.903748,535.166565 
	C629.929443,504.806213 649.408020,480.424469 679.035156,473.650696 
	C682.741577,472.803314 686.601990,472.215790 690.392090,472.210510 
	C745.876831,472.133270 801.361816,472.175140 856.846680,472.194611 
	C857.344238,472.194794 857.841858,472.275787 858.770386,472.557434 
z"/>
<path fill="#065C80" opacity="1.000000" stroke="none" 
	d="
M1188.413086,1261.969116 
	C1188.827759,1261.963379 1188.824951,1262.360596 1188.857422,1262.556519 
	C1176.582642,1274.931274 1164.231079,1287.065918 1151.976807,1299.297852 
	C1124.274902,1326.949097 1096.707886,1354.736206 1068.921265,1382.301880 
	C1044.218750,1406.807861 1005.223816,1406.463989 980.472839,1381.722290 
	C941.955994,1343.219727 903.469666,1304.686646 864.961426,1266.175415 
	C863.904785,1265.118652 862.747437,1264.162476 861.332153,1263.010254 
	C861.251221,1262.466309 861.492004,1261.718262 861.696716,1261.728149 
	C869.440796,1262.097290 877.181274,1262.903076 884.922852,1262.909912 
	C981.162598,1262.995361 1077.402344,1262.979980 1173.642212,1262.923706 
	C1178.427734,1262.920898 1183.213135,1262.305176 1188.413086,1261.969116 
z"/>
<path fill="#055C80" opacity="1.000000" stroke="none" 
	d="
M628.664246,705.041687 
	C628.992371,708.749817 629.013550,712.583679 629.014709,716.417542 
	C629.023621,747.043579 629.029419,777.669617 629.034485,808.295654 
	C629.036438,820.038391 628.912842,831.782776 629.071533,843.523376 
	C629.203796,853.308105 629.851074,863.087280 629.913635,872.871216 
	C629.953857,879.155823 629.123108,885.443726 629.101379,891.731628 
	C629.083130,897.018311 629.971802,902.308960 629.939758,907.594666 
	C629.712769,945.007385 629.349548,982.419373 629.038269,1019.831604 
	C629.012207,1022.962524 629.048828,1026.093994 629.048462,1029.606445 
	C612.280701,1013.340332 595.497620,996.716248 578.766663,980.039917 
	C556.250671,957.597351 533.869812,935.018372 511.256195,912.674805 
	C486.046509,887.766418 485.147125,848.706848 510.091553,823.481689 
	C549.298279,783.833862 588.908569,744.585144 628.664246,705.041687 
z"/>
<path fill="#055C80" opacity="1.000000" stroke="none" 
	d="
M1421.372559,1029.179443 
	C1421.012451,1026.326782 1420.966187,1023.364075 1420.965454,1020.401367 
	C1420.956909,987.598633 1420.954224,954.795837 1420.952881,921.993103 
	C1420.952515,912.909912 1421.083374,903.824707 1420.927490,894.744263 
	C1420.802246,887.452820 1420.029297,880.164978 1420.082397,872.879578 
	C1420.198608,856.930908 1420.870483,840.985596 1420.932495,825.037415 
	C1421.073853,788.651245 1421.010498,752.264038 1420.949463,715.877441 
	C1420.943359,712.257812 1420.381836,708.639038 1420.130371,704.642944 
	C1427.928589,711.794250 1435.760864,719.236023 1443.405396,726.866028 
	C1475.221558,758.621887 1507.070801,790.345398 1538.733643,822.253662 
	C1565.239990,848.965515 1564.319214,887.375244 1537.441162,913.931702 
	C1499.426392,951.491638 1461.801270,989.445862 1423.998169,1027.219971 
	C1423.307861,1027.909790 1422.474365,1028.456055 1421.372559,1029.179443 
z"/>
<path fill="#085D7E" opacity="1.000000" stroke="none" 
	d="
M1504.756104,1555.948975 
	C1504.152710,1566.412720 1503.564453,1576.385254 1502.892212,1587.781250 
	C1504.732666,1585.410156 1505.774658,1583.885986 1506.995483,1582.521851 
	C1524.863770,1562.553223 1542.742432,1542.593872 1560.689819,1522.696655 
	C1561.477539,1521.823364 1562.946533,1521.104126 1564.104248,1521.095337 
	C1578.387085,1520.987305 1592.670898,1521.024780 1608.124756,1521.024780 
	C1588.147705,1542.647339 1568.893066,1563.488159 1549.152222,1584.854980 
	C1569.779663,1612.314209 1590.400146,1639.764404 1611.659912,1668.065430 
	C1601.506104,1668.065430 1592.284180,1668.103760 1583.062988,1668.052124 
	C1576.911255,1668.017700 1569.774170,1669.754028 1564.886475,1667.215820 
	C1559.999878,1664.678101 1557.342407,1657.822510 1553.744385,1652.833374 
	C1543.240112,1638.267822 1532.754028,1623.689087 1521.989746,1608.738647 
	C1516.723389,1612.885376 1511.536133,1616.714600 1506.705811,1620.950806 
	C1505.486816,1622.019897 1504.909424,1624.383545 1504.886719,1626.162964 
	C1504.734131,1638.159424 1504.810547,1650.158936 1504.812622,1662.157349 
	C1504.812866,1663.950806 1504.812622,1665.744263 1504.812622,1667.802124 
	C1491.092041,1667.802124 1477.848267,1667.802124 1464.272461,1667.802124 
	C1464.272461,1599.109985 1464.272461,1530.545044 1464.272461,1461.664795 
	C1477.570801,1461.664795 1490.823975,1461.664795 1504.771362,1461.664795 
	C1504.771362,1492.971191 1504.771362,1524.214355 1504.756104,1555.948975 
z"/>
<path fill="#085D7E" opacity="1.000000" stroke="none" 
	d="
M923.063721,1522.061279 
	C940.501282,1516.829712 957.603577,1516.767334 974.572510,1522.070679 
	C997.834778,1529.340698 1013.335632,1549.858765 1014.870850,1575.631714 
	C1015.440796,1585.199707 1014.963013,1594.830200 1014.963013,1604.827637 
	C983.279114,1604.827637 951.859497,1604.827637 920.517761,1604.827637 
	C918.234436,1616.991211 926.769714,1631.826050 938.644409,1637.036499 
	C949.679138,1641.878296 961.250793,1641.384277 972.535095,1639.297607 
	C984.036377,1637.170654 995.241943,1633.444946 1006.953491,1630.318848 
	C1006.953491,1639.281982 1007.077759,1649.016235 1006.789856,1658.738281 
	C1006.755432,1659.900513 1004.665405,1661.427246 1003.212646,1662.057983 
	C981.789551,1671.360962 959.422668,1672.623657 936.637390,1669.329468 
	C923.903870,1667.488403 912.153015,1662.885864 902.195312,1654.596313 
	C891.097168,1645.357422 884.014526,1633.484009 880.899048,1619.367920 
	C876.803528,1600.811035 877.140686,1582.297729 882.646912,1564.088135 
	C888.884644,1543.459106 902.045654,1529.176880 923.063721,1522.061279 
M957.499512,1577.803223 
	C963.933044,1577.803223 970.366577,1577.803223 976.739624,1577.803223 
	C977.925720,1559.692505 965.880859,1546.928833 948.493286,1547.175781 
	C931.824951,1547.412476 919.708496,1560.750854 921.214661,1577.803223 
	C932.938843,1577.803223 944.719299,1577.803223 957.499512,1577.803223 
z"/>
<path fill="#085D7E" opacity="1.000000" stroke="none" 
	d="
M720.961060,1558.985962 
	C720.961060,1558.985962 721.045898,1559.422241 721.025513,1560.122070 
	C721.000916,1591.389771 720.996277,1621.957520 720.992981,1652.525269 
	C720.991455,1666.990112 720.992065,1667.073242 706.328857,1666.963989 
	C694.499146,1666.875854 695.463074,1668.957153 691.789673,1656.446411 
	C690.943848,1653.565796 688.480713,1651.160156 686.761841,1648.535889 
	C685.491577,1649.328857 683.933594,1649.871582 682.993774,1650.952148 
	C666.374939,1670.058838 637.467163,1676.819580 614.186462,1666.727783 
	C598.634766,1659.986206 591.638855,1647.211914 590.197449,1630.972412 
	C589.787476,1626.353271 589.815674,1621.612549 590.343750,1617.007812 
	C592.169556,1601.087158 601.113831,1590.630249 615.803711,1584.709961 
	C629.473450,1579.200684 643.836975,1577.678711 658.361511,1577.203857 
	C666.148010,1576.949341 673.949707,1577.158691 681.813232,1577.158691 
	C681.813232,1572.576782 682.197632,1568.883911 681.738647,1565.298828 
	C680.534180,1555.891113 674.156677,1550.039795 664.414795,1548.870605 
	C652.174622,1547.401611 640.606506,1550.284790 629.240234,1554.354126 
	C625.329956,1555.754028 621.505981,1557.394653 617.151123,1559.120117 
	C612.709839,1550.093994 608.263672,1541.057983 603.563721,1531.506104 
	C631.048584,1518.768188 658.972351,1514.315674 688.673340,1522.418823 
	C689.766235,1523.649902 690.405762,1524.518433 691.263794,1524.986450 
	C695.786438,1527.453491 700.340515,1529.866699 704.942200,1532.182251 
	C705.894775,1532.661499 707.095215,1532.647949 708.181458,1532.861572 
	C708.181458,1532.861572 708.085388,1532.896484 708.185181,1533.121582 
	C708.613708,1533.533447 708.942383,1533.720215 709.271057,1533.906982 
	C709.593689,1533.897705 709.837402,1534.031860 710.046936,1534.873535 
	C710.746216,1535.949829 711.400696,1536.461914 712.055237,1536.973999 
	C712.055237,1536.973999 711.999634,1536.998779 712.008972,1537.342529 
	C712.744263,1538.415771 713.470154,1539.145386 714.196045,1539.875000 
	C714.196045,1539.875000 714.086609,1539.914917 714.064453,1540.268677 
	C716.066772,1544.750977 718.091248,1548.879517 720.115662,1553.008057 
	C720.263550,1553.295410 720.411499,1553.582764 720.334473,1554.500488 
	C720.393372,1556.415771 720.677246,1557.700928 720.961060,1558.985962 
M681.147827,1620.353882 
	C681.578430,1613.816162 682.009033,1607.278564 682.516846,1599.567993 
	C670.498718,1600.823120 659.601990,1601.596069 648.849060,1603.284790 
	C645.153015,1603.865112 641.442566,1606.254761 638.386536,1608.645752 
	C629.825256,1615.344116 627.835510,1634.992798 641.166565,1639.476074 
	C656.335388,1644.577393 676.640564,1637.778809 681.147827,1620.353882 
z"/>
<path fill="#075C7E" opacity="1.000000" stroke="none" 
	d="
M1051.668701,1535.000000 
	C1051.668579,1514.513306 1051.668579,1494.526611 1051.668579,1474.161499 
	C1065.345947,1474.161499 1078.886719,1474.161499 1092.885498,1474.161499 
	C1092.885498,1527.251465 1092.885498,1580.310059 1092.885498,1633.798096 
	C1119.245728,1633.798096 1145.158081,1633.798096 1171.477295,1633.798096 
	C1171.477295,1645.267578 1171.477295,1656.315063 1171.477295,1667.721680 
	C1131.773071,1667.721680 1092.067139,1667.721680 1051.668701,1667.721680 
	C1051.668701,1623.638428 1051.668701,1579.569214 1051.668701,1535.000000 
z"/>
<path fill="#085D7E" opacity="1.000000" stroke="none" 
	d="
M565.022339,1626.293701 
	C565.160889,1636.324341 565.004395,1645.991821 565.285706,1655.646729 
	C565.384155,1659.025146 564.121643,1660.707275 561.319824,1662.229248 
	C546.069641,1670.514160 529.564392,1671.626709 512.796814,1670.589478 
	C506.372559,1670.192017 499.903564,1668.953003 493.672760,1667.284180 
	C473.845184,1661.973633 461.138977,1648.853882 455.217255,1629.540649 
	C448.727020,1608.373169 448.474030,1586.717529 454.245850,1565.424927 
	C461.629883,1538.185059 480.653137,1523.515137 508.044128,1519.405273 
	C528.040527,1516.404907 547.548401,1518.559326 566.222473,1526.713013 
	C566.985107,1527.046143 567.752502,1527.372314 568.493774,1527.748657 
	C568.774353,1527.891113 568.987000,1528.167236 569.687622,1528.786621 
	C565.900452,1538.787354 562.038086,1548.986328 557.993835,1559.665771 
	C552.706482,1557.852295 547.693298,1555.651367 542.450745,1554.454956 
	C535.686035,1552.910889 528.741272,1551.303833 521.867981,1551.276733 
	C510.043732,1551.230225 500.800568,1556.736572 496.563324,1568.124756 
	C490.264282,1585.054077 489.893219,1602.388428 496.044312,1619.453003 
	C500.455597,1631.690918 509.816742,1637.668823 522.906799,1637.925659 
	C536.605286,1638.194580 549.196045,1634.479492 560.965454,1627.635498 
	C562.193115,1626.921753 563.584290,1626.488892 565.022339,1626.293701 
z"/>
<path fill="#085D7E" opacity="1.000000" stroke="none" 
	d="
M812.299683,1569.386597 
	C806.777100,1576.565796 804.781616,1584.430054 804.815552,1593.032715 
	C804.905518,1615.860474 804.845154,1638.688721 804.844543,1661.516846 
	C804.844482,1663.485352 804.844543,1665.453979 804.844543,1667.746948 
	C791.209412,1667.746948 777.964661,1667.746948 764.347046,1667.746948 
	C764.347046,1619.084961 764.347046,1570.373291 764.347046,1521.345581 
	C774.387329,1521.345581 784.470886,1521.345581 794.852478,1521.345581 
	C796.854431,1529.431152 798.880554,1537.614502 801.350891,1547.591797 
	C808.579956,1536.762329 816.118225,1528.110718 826.764648,1522.914062 
	C837.546448,1517.651367 848.771362,1517.269897 860.760620,1519.584106 
	C859.754700,1532.135864 858.764709,1544.488159 857.751526,1557.129761 
	C840.869995,1555.320679 824.972839,1555.938477 812.299683,1569.386597 
z"/>
<path fill="#085D7E" opacity="1.000000" stroke="none" 
	d="
M1201.851074,1647.000000 
	C1201.851074,1604.883667 1201.851074,1563.267334 1201.851074,1521.337891 
	C1215.421631,1521.337891 1228.671753,1521.337891 1242.280273,1521.337891 
	C1242.280273,1569.993042 1242.280273,1618.710938 1242.280273,1667.750366 
	C1228.972168,1667.750366 1215.748291,1667.750366 1201.851074,1667.750366 
	C1201.851074,1661.006348 1201.851074,1654.253174 1201.851074,1647.000000 
z"/>
<path fill="#085D7E" opacity="1.000000" stroke="none" 
	d="
M1241.967529,1471.257690 
	C1242.727051,1477.288574 1244.107422,1483.043091 1243.683594,1488.661621 
	C1243.186401,1495.253662 1238.330444,1499.525391 1232.095215,1500.814087 
	C1226.681152,1501.932983 1220.818481,1502.454956 1215.397705,1501.633301 
	C1204.773315,1500.022705 1200.197632,1493.806152 1200.076904,1482.890381 
	C1199.950439,1471.438599 1204.197632,1465.352905 1215.074097,1463.432373 
	C1224.927368,1461.692505 1234.731445,1461.873169 1241.967529,1471.257690 
z"/>
<path fill="#5DA9AA" opacity="1.000000" stroke="none" 
	d="
M858.086914,1260.956299 
	C858.670044,1261.376953 859.253235,1261.797729 859.944824,1262.473389 
	C803.440857,1262.765869 746.825134,1263.191040 690.217468,1262.695435 
	C656.167542,1262.397339 629.645325,1234.036133 629.589966,1199.239502 
	C629.501221,1143.459229 629.557007,1087.678833 629.588074,1031.431885 
	C630.110535,1031.735474 630.596619,1032.505615 631.071350,1033.995361 
	C631.369324,1038.005249 631.944519,1041.295166 631.948303,1044.585449 
	C632.005554,1094.574341 631.959473,1144.563232 632.028992,1194.552124 
	C632.036438,1199.929321 632.143799,1205.388306 633.069763,1210.657471 
	C633.871582,1215.219971 635.761658,1219.620239 637.436890,1223.990356 
	C638.642761,1227.136108 640.069763,1230.245361 641.812744,1233.119507 
	C642.928833,1234.959961 645.052185,1236.169312 646.284546,1237.963501 
	C650.049561,1243.444580 654.722290,1247.590454 660.422607,1251.251343 
	C670.541992,1257.750366 681.489258,1260.859253 693.125000,1260.906372 
	C748.111450,1261.128784 803.099487,1260.975464 858.086914,1260.956299 
z"/>
<path fill="#17566C" opacity="1.000000" stroke="none" 
	d="
M1337.097046,1557.100464 
	C1327.796143,1567.910278 1326.167969,1581.104858 1326.004272,1594.524780 
	C1325.730103,1617.002197 1325.927124,1639.485474 1325.925903,1661.966187 
	C1325.925781,1663.769043 1325.925903,1665.572021 1325.925903,1667.726807 
	C1312.317383,1667.726807 1299.076904,1667.726807 1285.448486,1667.726807 
	C1285.448486,1619.157593 1285.448486,1570.464966 1285.448486,1521.053955 
	C1295.045166,1521.053955 1304.791016,1520.976318 1314.530518,1521.185913 
	C1315.409302,1521.204834 1316.654663,1522.943970 1317.035645,1524.110962 
	C1318.762817,1529.400513 1320.240967,1534.771484 1322.093750,1541.083862 
	C1340.992432,1517.240356 1364.872925,1514.569824 1391.621338,1521.875732 
	C1391.905273,1522.105591 1391.876221,1522.137939 1391.448486,1522.088989 
	C1389.688354,1522.015503 1388.297729,1522.233154 1387.032471,1521.929199 
	C1373.127808,1518.586304 1359.735352,1519.304321 1346.162354,1524.551392 
	C1337.839111,1527.768799 1331.386108,1532.432007 1326.378296,1539.481812 
	C1323.858765,1543.028809 1321.741821,1543.051514 1319.943848,1539.011353 
	C1318.635742,1536.072144 1317.587280,1532.926758 1317.021118,1529.766235 
	C1315.798218,1522.937134 1314.883301,1522.005005 1307.734741,1522.004639 
	C1302.736694,1522.004395 1297.715332,1522.301514 1292.747437,1521.914062 
	C1288.136230,1521.554565 1286.874023,1523.102661 1286.892212,1527.722168 
	C1287.064575,1571.704346 1286.994141,1615.687256 1286.999512,1659.670044 
	C1286.999756,1661.001221 1286.564819,1662.706421 1287.215576,1663.578369 
	C1288.259888,1664.977661 1290.041992,1666.753296 1291.513550,1666.754395 
	C1300.300781,1666.761353 1309.092285,1666.004761 1317.874146,1666.123169 
	C1322.755981,1666.188965 1324.132324,1664.560425 1324.090210,1659.797363 
	C1323.885010,1636.641602 1323.986328,1613.483032 1324.006226,1590.325439 
	C1324.015747,1579.127075 1327.346924,1568.841797 1332.986328,1559.293213 
	C1333.673828,1558.129272 1335.569458,1557.678955 1336.953125,1556.948730 
	C1337.000977,1556.999390 1337.097046,1557.100464 1337.097046,1557.100464 
z"/>
<path fill="#17566C" opacity="1.000000" stroke="none" 
	d="
M1408.265503,1531.756592 
	C1417.778564,1540.096924 1421.457397,1551.283569 1421.827148,1563.241333 
	C1422.531860,1586.026367 1422.316406,1608.840698 1422.431152,1631.643066 
	C1422.491333,1643.604248 1422.441772,1655.565918 1422.441772,1667.797119 
	C1408.789551,1667.797119 1395.572266,1667.797119 1381.859253,1667.797119 
	C1381.859253,1665.837402 1381.860352,1664.057129 1381.859131,1662.276733 
	C1381.840088,1635.308350 1381.959351,1608.338623 1381.722046,1581.372192 
	C1381.644165,1572.547485 1380.520142,1563.768066 1374.074463,1556.375488 
	C1373.994995,1556.006592 1374.098511,1555.907227 1374.439209,1555.974365 
	C1380.011719,1560.022705 1382.421753,1565.725586 1382.864380,1571.877441 
	C1383.650391,1582.801025 1383.855103,1593.778809 1383.951294,1604.736938 
	C1384.112183,1623.065674 1383.989502,1641.396606 1384.001099,1659.726685 
	C1384.005005,1665.974976 1386.432617,1667.419556 1392.727661,1666.748047 
	C1399.286133,1666.048218 1406.000366,1665.964355 1412.573608,1666.502930 
	C1418.367188,1666.977783 1421.033203,1665.363770 1420.978394,1659.416016 
	C1420.681885,1627.296875 1420.540283,1595.173828 1419.875610,1563.061768 
	C1419.672974,1553.276367 1416.595581,1544.095337 1409.689453,1536.578369 
	C1408.672119,1535.471313 1408.493652,1533.593750 1408.011230,1531.993042 
	C1408.095215,1531.913452 1408.265503,1531.756592 1408.265503,1531.756592 
z"/>
<path fill="#17566C" opacity="1.000000" stroke="none" 
	d="
M686.773010,1648.897461 
	C688.480713,1651.160156 690.943848,1653.565796 691.789673,1656.446411 
	C695.463074,1668.957153 694.499146,1666.875854 706.328857,1666.963989 
	C720.992065,1667.073242 720.991455,1666.990112 720.992981,1652.525269 
	C720.996277,1621.957520 721.000916,1591.389771 721.022827,1560.344360 
	C721.527039,1562.558228 722.430359,1565.248657 722.436707,1567.941284 
	C722.512878,1600.395752 722.458374,1632.850708 722.423218,1665.305420 
	C722.422363,1666.108276 722.252869,1666.911011 722.122375,1668.064087 
	C713.509338,1668.064087 705.043701,1668.166382 696.586243,1667.948853 
	C695.382812,1667.917969 693.641296,1666.587158 693.136658,1665.427979 
	C690.826904,1660.121826 688.868652,1654.662964 686.773010,1648.897461 
z"/>
<path fill="#17566C" opacity="1.000000" stroke="none" 
	d="
M1373.943970,1556.056885 
	C1362.929199,1548.735474 1349.198120,1549.035522 1337.433472,1556.998535 
	C1337.097046,1557.100464 1337.000977,1556.999390 1337.026123,1556.605469 
	C1337.405640,1555.662109 1337.633423,1554.920776 1338.132812,1554.591919 
	C1347.237793,1548.595581 1357.453979,1548.134766 1367.688599,1549.644409 
	C1370.081177,1549.997314 1371.975098,1553.729736 1374.098511,1555.907227 
	C1374.098511,1555.907227 1373.994995,1556.006592 1373.943970,1556.056885 
z"/>
<path fill="#17566C" opacity="1.000000" stroke="none" 
	d="
M708.028870,1532.559570 
	C707.095215,1532.647949 705.894775,1532.661499 704.942200,1532.182251 
	C700.340515,1529.866699 695.786438,1527.453491 691.263794,1524.986450 
	C690.405762,1524.518433 689.766235,1523.649902 689.016602,1522.597656 
	C695.296936,1525.572021 701.586609,1528.914673 708.028870,1532.559570 
z"/>
<path fill="#17566C" opacity="1.000000" stroke="none" 
	d="
M1391.919434,1522.089111 
	C1396.329102,1524.353271 1400.724609,1526.633789 1405.189209,1529.315430 
	C1405.258179,1529.716675 1404.978394,1530.021973 1404.627686,1529.979248 
	C1400.950928,1528.259644 1397.572266,1526.676025 1394.329956,1524.850830 
	C1393.322266,1524.283569 1392.683716,1523.060669 1391.876221,1522.137939 
	C1391.876221,1522.137939 1391.905273,1522.105591 1391.919434,1522.089111 
z"/>
<path fill="#17566C" opacity="1.000000" stroke="none" 
	d="
M720.123169,1552.618652 
	C718.091248,1548.879517 716.066772,1544.750977 714.092896,1540.217773 
	C716.139221,1543.951904 718.134888,1548.090576 720.123169,1552.618652 
z"/>
<path fill="#17566C" opacity="1.000000" stroke="none" 
	d="
M1405.401855,1529.567627 
	C1406.363647,1530.013306 1407.182007,1530.608276 1408.132812,1531.479858 
	C1408.265503,1531.756592 1408.095215,1531.913452 1407.665527,1531.964111 
	C1406.483276,1531.350586 1405.730835,1530.686279 1404.978394,1530.021973 
	C1404.978394,1530.021973 1405.258179,1529.716675 1405.401855,1529.567627 
z"/>
<path fill="#17566C" opacity="1.000000" stroke="none" 
	d="
M721.134644,1558.734375 
	C720.677246,1557.700928 720.393372,1556.415771 720.185547,1554.705811 
	C720.610535,1555.681396 720.959412,1557.082153 721.134644,1558.734375 
z"/>
<path fill="#17566C" opacity="1.000000" stroke="none" 
	d="
M714.140686,1539.561279 
	C713.470154,1539.145386 712.744263,1538.415771 712.023071,1537.315430 
	C712.713684,1537.712280 713.399475,1538.479858 714.140686,1539.561279 
z"/>
<path fill="#17566C" opacity="1.000000" stroke="none" 
	d="
M711.969055,1536.677979 
	C711.400696,1536.461914 710.746216,1535.949829 710.091187,1535.086426 
	C710.688049,1535.284058 711.285461,1535.833008 711.969055,1536.677979 
z"/>
<path fill="#17566C" opacity="1.000000" stroke="none" 
	d="
M709.158997,1533.642578 
	C708.942383,1533.720215 708.613708,1533.533447 708.188477,1533.070557 
	C708.410278,1532.989014 708.728638,1533.183594 709.158997,1533.642578 
z"/>
<path fill="#FDFEFE" opacity="1.000000" stroke="none" 
	d="
M730.928650,612.936462 
	C789.686646,546.221863 862.053406,503.251007 949.019897,486.066406 
	C1038.966064,468.293060 1125.353760,480.173279 1206.179932,523.420898 
	C1306.468140,577.082092 1371.544312,659.810303 1401.499390,769.654236 
	C1411.460449,806.180908 1415.439209,843.629456 1413.695801,881.463013 
	C1408.790771,987.902710 1367.858032,1078.292725 1290.437866,1151.445557 
	C1232.701660,1205.999390 1163.991211,1239.733765 1085.392822,1251.492188 
	C981.085815,1267.096802 885.012207,1244.915405 798.891113,1183.616333 
	C729.122253,1133.956421 681.272705,1067.683105 654.614136,986.290894 
	C644.309753,954.830322 638.576294,922.466431 636.781616,889.363403 
	C632.808594,816.082275 648.127686,747.145386 682.793518,682.500244 
	C696.144165,657.603638 712.151489,634.521118 730.928650,612.936462 
M1228.177612,901.831299 
	C1227.964355,900.187500 1227.644043,898.549072 1227.562622,896.898743 
	C1227.434570,894.300171 1227.467163,891.693604 1227.368530,888.445251 
	C1227.620117,887.622620 1227.871826,886.800049 1228.639526,885.468689 
	C1229.731323,881.154480 1231.133667,876.889954 1231.833740,872.513062 
	C1232.649536,867.412842 1232.851196,862.214355 1233.314209,856.104675 
	C1233.534058,855.176514 1233.753906,854.248352 1233.967407,853.384583 
	C1233.967407,853.384583 1234.053467,853.478699 1234.030029,852.604614 
	C1235.250000,840.721313 1241.143799,829.032593 1235.465820,815.920410 
	C1230.818237,817.681274 1226.430176,819.343872 1221.993774,820.121765 
	C1221.703247,817.308411 1221.425659,814.493591 1221.120117,811.681885 
	C1215.832397,763.014404 1195.409180,721.518677 1159.507935,688.577454 
	C1110.721558,643.813354 1052.664673,626.694580 987.713806,639.346130 
	C918.961121,652.738220 870.755432,693.339905 842.605896,757.510559 
	C833.621887,777.990723 829.592712,799.698547 826.985474,821.759766 
	C826.725098,821.597168 826.414856,821.481384 826.211731,821.265015 
	C822.449158,817.256836 815.898987,814.889404 812.919434,817.148682 
	C809.061218,820.074219 809.878174,824.458374 810.675903,828.611267 
	C814.316467,847.563354 818.049988,866.498657 821.518494,885.482361 
	C823.553833,896.621460 825.154602,907.839905 826.950867,919.022705 
	C826.552673,919.143372 826.154480,919.264038 825.756348,919.384705 
	C824.780457,917.007812 823.534729,914.703735 822.870605,912.242737 
	C816.544189,888.798950 810.552002,865.262451 803.988464,841.886047 
	C798.387329,821.937317 788.451111,804.726196 770.118835,793.655212 
	C767.527039,792.090088 764.321960,791.307129 761.292908,790.764465 
	C758.212646,790.212585 755.846130,791.931152 755.947083,795.149780 
	C756.075134,799.232666 756.519348,803.396240 757.527954,807.346069 
	C764.064270,832.945190 770.803101,858.492676 777.424316,884.070312 
	C777.791565,885.488953 777.702759,887.025635 777.826233,888.507385 
	C777.402161,888.611267 776.978088,888.715149 776.554077,888.818970 
	C775.662598,887.311401 774.782166,885.797180 773.877991,884.297302 
	C767.181580,873.189148 761.057556,861.679993 753.637268,851.078125 
	C743.956909,837.246887 731.192688,826.821777 714.345093,822.850952 
	C709.180298,821.633728 703.528137,821.780884 698.183594,822.255005 
	C693.989685,822.627075 691.759766,825.926392 692.902954,830.229187 
	C693.870239,833.869812 695.201599,837.525757 697.031372,840.807068 
	C708.920715,862.128174 717.953857,884.534058 724.460266,908.092651 
	C733.621277,941.262878 742.860107,974.433105 753.160950,1007.259705 
	C760.322449,1030.082153 768.718811,1052.567993 780.662415,1073.510132 
	C800.684021,1108.616577 829.115967,1135.433472 862.577393,1157.431885 
	C903.427490,1184.287720 947.906372,1202.854492 994.800537,1216.072754 
	C1010.898315,1220.610107 1026.424683,1223.961426 1043.670898,1219.280396 
	C1099.401733,1204.153564 1151.943359,1182.502563 1199.242432,1148.922974 
	C1237.428833,1121.812866 1265.623169,1087.143066 1282.989990,1043.274780 
	C1299.019043,1002.785645 1311.764771,961.402039 1322.039307,919.153503 
	C1328.943359,890.764832 1338.203613,863.245483 1353.937500,838.280823 
	C1355.645630,835.570679 1356.852783,832.189270 1357.140381,829.014832 
	C1357.704956,822.786438 1353.032837,818.990845 1346.876709,820.270447 
	C1324.168823,824.990845 1304.854614,835.283020 1292.046143,855.307678 
	C1285.257568,865.920959 1279.306274,877.069885 1272.146606,889.407898 
	C1272.399536,886.153992 1272.275513,884.138123 1272.743896,882.270935 
	C1279.018799,857.260620 1285.583130,832.320129 1291.539795,807.235046 
	C1292.739868,802.181030 1291.713257,796.598328 1291.713257,789.499146 
	C1285.315674,791.965820 1279.855713,793.151062 1275.418945,795.955261 
	C1262.398804,804.184082 1253.703247,816.381042 1249.182251,830.776855 
	C1241.789429,854.317322 1235.608032,878.238098 1228.177612,901.831299 
z"/>
<path fill="#40A7AE" opacity="1.000000" stroke="none" 
	d="
M858.053589,1260.611816 
	C803.099487,1260.975464 748.111450,1261.128784 693.125000,1260.906372 
	C681.489258,1260.859253 670.541992,1257.750366 660.422607,1251.251343 
	C654.722290,1247.590454 650.049561,1243.444580 646.284546,1237.963501 
	C645.052185,1236.169312 642.928833,1234.959961 641.812744,1233.119507 
	C640.069763,1230.245361 638.642761,1227.136108 637.436890,1223.990356 
	C635.761658,1219.620239 633.871582,1215.219971 633.069763,1210.657471 
	C632.143799,1205.388306 632.036438,1199.929321 632.028992,1194.552124 
	C631.959473,1144.563232 632.005554,1094.574341 631.948303,1044.585449 
	C631.944519,1041.295166 631.369324,1038.005249 631.104614,1034.277344 
	C632.605347,1034.882202 634.241760,1035.744629 635.491821,1036.993652 
	C708.549194,1109.992676 781.576477,1183.021729 854.586365,1256.068359 
	C855.858215,1257.340820 856.881226,1258.862061 858.053589,1260.611816 
z"/>
<path fill="#FAFDFD" opacity="1.000000" stroke="none" 
	d="
M956.999634,1577.803223 
	C944.719299,1577.803223 932.938843,1577.803223 921.214661,1577.803223 
	C919.708496,1560.750854 931.824951,1547.412476 948.493286,1547.175781 
	C965.880859,1546.928833 977.925720,1559.692505 976.739624,1577.803223 
	C970.366577,1577.803223 963.933044,1577.803223 956.999634,1577.803223 
z"/>
<path fill="#FAFDFD" opacity="1.000000" stroke="none" 
	d="
M681.073975,1620.762329 
	C676.640564,1637.778809 656.335388,1644.577393 641.166565,1639.476074 
	C627.835510,1634.992798 629.825256,1615.344116 638.386536,1608.645752 
	C641.442566,1606.254761 645.153015,1603.865112 648.849060,1603.284790 
	C659.601990,1601.596069 670.498718,1600.823120 682.516846,1599.567993 
	C682.009033,1607.278564 681.578430,1613.816162 681.073975,1620.762329 
z"/>
<path fill="#075D7F" opacity="1.000000" stroke="none" 
	d="
M1404.627686,1529.979248 
	C1405.730835,1530.686279 1406.483276,1531.350586 1407.581543,1532.043701 
	C1408.493652,1533.593750 1408.672119,1535.471313 1409.689453,1536.578369 
	C1416.595581,1544.095337 1419.672974,1553.276367 1419.875610,1563.061768 
	C1420.540283,1595.173828 1420.681885,1627.296875 1420.978394,1659.416016 
	C1421.033203,1665.363770 1418.367188,1666.977783 1412.573608,1666.502930 
	C1406.000366,1665.964355 1399.286133,1666.048218 1392.727661,1666.748047 
	C1386.432617,1667.419556 1384.005005,1665.974976 1384.001099,1659.726685 
	C1383.989502,1641.396606 1384.112183,1623.065674 1383.951294,1604.736938 
	C1383.855103,1593.778809 1383.650391,1582.801025 1382.864380,1571.877441 
	C1382.421753,1565.725586 1380.011719,1560.022705 1374.439209,1555.974365 
	C1371.975098,1553.729736 1370.081177,1549.997314 1367.688599,1549.644409 
	C1357.453979,1548.134766 1347.237793,1548.595581 1338.132812,1554.591919 
	C1337.633423,1554.920776 1337.405640,1555.662109 1336.978271,1556.554688 
	C1335.569458,1557.678955 1333.673828,1558.129272 1332.986328,1559.293213 
	C1327.346924,1568.841797 1324.015747,1579.127075 1324.006226,1590.325439 
	C1323.986328,1613.483032 1323.885010,1636.641602 1324.090210,1659.797363 
	C1324.132324,1664.560425 1322.755981,1666.188965 1317.874146,1666.123169 
	C1309.092285,1666.004761 1300.300781,1666.761353 1291.513550,1666.754395 
	C1290.041992,1666.753296 1288.259888,1664.977661 1287.215576,1663.578369 
	C1286.564819,1662.706421 1286.999756,1661.001221 1286.999512,1659.670044 
	C1286.994141,1615.687256 1287.064575,1571.704346 1286.892212,1527.722168 
	C1286.874023,1523.102661 1288.136230,1521.554565 1292.747437,1521.914062 
	C1297.715332,1522.301514 1302.736694,1522.004395 1307.734741,1522.004639 
	C1314.883301,1522.005005 1315.798218,1522.937134 1317.021118,1529.766235 
	C1317.587280,1532.926758 1318.635742,1536.072144 1319.943848,1539.011353 
	C1321.741821,1543.051514 1323.858765,1543.028809 1326.378296,1539.481812 
	C1331.386108,1532.432007 1337.839111,1527.768799 1346.162354,1524.551392 
	C1359.735352,1519.304321 1373.127808,1518.586304 1387.032471,1521.929199 
	C1388.297729,1522.233154 1389.688354,1522.015503 1391.448486,1522.088989 
	C1392.683716,1523.060669 1393.322266,1524.283569 1394.329956,1524.850830 
	C1397.572266,1526.676025 1400.950928,1528.259644 1404.627686,1529.979248 
z"/>
<path fill="#055C80" opacity="1.000000" stroke="none" 
	d="
M1222.042114,821.006470 
	C1226.430176,819.343872 1230.818237,817.681274 1235.465820,815.920410 
	C1241.143799,829.032593 1235.250000,840.721313 1233.955566,853.039185 
	C1233.881104,853.473755 1233.973755,853.320190 1233.973633,853.320190 
	C1233.753906,854.248352 1233.534058,855.176514 1233.178467,856.958313 
	C1231.402832,867.200439 1229.763062,876.588928 1228.123291,885.977417 
	C1227.871826,886.800049 1227.620117,887.622620 1227.244873,889.136719 
	C1226.384888,898.151978 1222.378052,906.249634 1224.270996,914.755310 
	C1224.757202,914.811035 1225.243530,914.866821 1225.729858,914.922546 
	C1226.791870,910.614563 1227.853882,906.306519 1228.915771,901.998535 
	C1235.608032,878.238098 1241.789429,854.317322 1249.182251,830.776855 
	C1253.703247,816.381042 1262.398804,804.184082 1275.418945,795.955261 
	C1279.855713,793.151062 1285.315674,791.965820 1291.713257,789.499146 
	C1291.713257,796.598328 1292.739868,802.181030 1291.539795,807.235046 
	C1285.583130,832.320129 1279.018799,857.260620 1272.743896,882.270935 
	C1272.275513,884.138123 1272.399536,886.153992 1272.146606,889.407898 
	C1279.306274,877.069885 1285.257568,865.920959 1292.046143,855.307678 
	C1304.854614,835.283020 1324.168823,824.990845 1346.876709,820.270447 
	C1353.032837,818.990845 1357.704956,822.786438 1357.140381,829.014832 
	C1356.852783,832.189270 1355.645630,835.570679 1353.937500,838.280823 
	C1338.203613,863.245483 1328.943359,890.764832 1322.039307,919.153503 
	C1311.764771,961.402039 1299.019043,1002.785645 1282.989990,1043.274780 
	C1265.623169,1087.143066 1237.428833,1121.812866 1199.242432,1148.922974 
	C1151.943359,1182.502563 1099.401733,1204.153564 1043.670898,1219.280396 
	C1026.424683,1223.961426 1010.898315,1220.610107 994.800537,1216.072754 
	C947.906372,1202.854492 903.427490,1184.287720 862.577393,1157.431885 
	C829.115967,1135.433472 800.684021,1108.616577 780.662415,1073.510132 
	C768.718811,1052.567993 760.322449,1030.082153 753.160950,1007.259705 
	C742.860107,974.433105 733.621277,941.262878 724.460266,908.092651 
	C717.953857,884.534058 708.920715,862.128174 697.031372,840.807068 
	C695.201599,837.525757 693.870239,833.869812 692.902954,830.229187 
	C691.759766,825.926392 693.989685,822.627075 698.183594,822.255005 
	C703.528137,821.780884 709.180298,821.633728 714.345093,822.850952 
	C731.192688,826.821777 743.956909,837.246887 753.637268,851.078125 
	C761.057556,861.679993 767.181580,873.189148 773.877991,884.297302 
	C774.782166,885.797180 775.662598,887.311401 776.554077,888.818970 
	C776.978088,888.715149 777.402161,888.611267 777.826233,888.507385 
	C777.702759,887.025635 777.791565,885.488953 777.424316,884.070312 
	C770.803101,858.492676 764.064270,832.945190 757.527954,807.346069 
	C756.519348,803.396240 756.075134,799.232666 755.947083,795.149780 
	C755.846130,791.931152 758.212646,790.212585 761.292908,790.764465 
	C764.321960,791.307129 767.527039,792.090088 770.118835,793.655212 
	C788.451111,804.726196 798.387329,821.937317 803.988464,841.886047 
	C810.552002,865.262451 816.544189,888.798950 822.870605,912.242737 
	C823.534729,914.703735 824.780457,917.007812 825.756348,919.384705 
	C826.154480,919.264038 826.552673,919.143372 826.950867,919.022705 
	C825.154602,907.839905 823.553833,896.621460 821.518494,885.482361 
	C818.049988,866.498657 814.316467,847.563354 810.675903,828.611267 
	C809.878174,824.458374 809.061218,820.074219 812.919434,817.148682 
	C815.898987,814.889404 822.449158,817.256836 826.211731,821.265015 
	C826.414856,821.481384 826.725098,821.597168 827.630981,821.963867 
	C832.974609,828.358215 838.902771,833.984131 842.066223,840.878662 
	C846.215576,849.922119 848.577271,859.868103 851.005371,869.601135 
	C855.327087,886.925110 859.073303,904.391968 863.194885,921.767090 
	C863.730042,924.023254 865.063599,926.090149 866.027283,928.244690 
	C866.553711,928.113098 867.080078,927.981506 867.606506,927.849915 
	C865.919434,911.285950 864.096375,894.734131 862.613159,878.151978 
	C862.029663,871.628967 861.774536,865.003540 862.296326,858.499023 
	C862.454285,856.530334 865.681519,853.391785 867.572998,853.339722 
	C869.891968,853.275940 873.512146,855.347717 874.435303,857.438599 
	C878.694397,867.085144 882.340271,877.013062 885.905579,886.947876 
	C886.824280,889.507874 887.666809,890.286560 890.086243,888.933960 
	C894.096741,886.691589 898.147522,884.521179 903.166992,881.782776 
	C905.003845,885.370056 907.737061,888.780029 908.505981,892.586792 
	C910.467346,902.296570 911.450195,912.199707 913.012024,921.995605 
	C915.215027,935.812805 917.373413,949.642944 919.941101,963.394714 
	C923.100159,980.313293 930.727966,995.617798 938.098877,1011.349487 
	C945.975281,1024.090820 953.138550,1036.906372 961.462585,1048.917358 
	C992.011719,1092.997437 1014.387512,1140.390381 1022.091492,1193.977783 
	C1022.302002,1195.442017 1023.051697,1196.828735 1023.549988,1198.251587 
	C1025.721680,1194.303711 1026.907349,1190.535400 1028.014771,1186.744141 
	C1033.837646,1166.806763 1038.576050,1146.474976 1045.682495,1127.007080 
	C1058.673340,1091.418335 1078.699829,1059.544678 1100.796875,1028.919189 
	C1105.039673,1023.039001 1108.255249,1016.417725 1112.233154,1009.931030 
	C1121.589111,992.651001 1127.539795,974.474670 1130.923950,955.517212 
	C1133.945435,938.591736 1136.139526,921.519531 1139.086792,904.579651 
	C1140.267578,897.793518 1142.360596,891.149353 1144.385376,884.546997 
	C1144.652832,883.675110 1147.244141,882.681885 1148.305664,883.050598 
	C1151.026489,883.995361 1153.472778,885.712097 1156.063232,887.054077 
	C1161.205566,889.718201 1162.261475,889.202820 1163.925537,883.664001 
	C1165.637817,877.964111 1166.866455,872.001892 1169.457886,866.719177 
	C1171.631836,862.287354 1175.272583,858.498779 1178.619873,854.742615 
	C1181.332642,851.698486 1183.224731,853.452576 1185.210693,856.252380 
	C1189.738770,862.635986 1186.972778,869.507690 1186.649536,876.032959 
	C1185.879883,891.568420 1184.263672,907.061462 1183.054077,922.576721 
	C1182.979126,923.536377 1183.465210,924.539734 1183.690308,925.522766 
	C1186.667358,917.031372 1188.526855,908.516113 1190.505615,900.028625 
	C1193.652222,886.532104 1196.659790,872.996887 1200.166626,859.593262 
	C1201.836182,853.211853 1203.659668,846.588867 1206.960449,840.986755 
	C1211.168945,833.844238 1216.942993,827.624268 1222.042114,821.006470 
M1183.582764,928.506287 
	C1183.582764,928.506287 1183.473999,928.569885 1183.582764,928.506287 
z"/>
<path fill="#0371BD" opacity="1.000000" stroke="none" 
	d="
M937.918518,1011.054504 
	C930.727966,995.617798 923.100159,980.313293 919.941101,963.394714 
	C917.373413,949.642944 915.215027,935.812805 913.012024,921.995605 
	C911.450195,912.199707 910.467346,902.296570 908.505981,892.586792 
	C907.737061,888.780029 905.003845,885.370056 903.166992,881.782776 
	C898.147522,884.521179 894.096741,886.691589 890.086243,888.933960 
	C887.666809,890.286560 886.824280,889.507874 885.905579,886.947876 
	C882.340271,877.013062 878.694397,867.085144 874.435303,857.438599 
	C873.512146,855.347717 869.891968,853.275940 867.572998,853.339722 
	C865.681519,853.391785 862.454285,856.530334 862.296326,858.499023 
	C861.774536,865.003540 862.029663,871.628967 862.613159,878.151978 
	C864.096375,894.734131 865.919434,911.285950 867.606506,927.849915 
	C867.080078,927.981506 866.553711,928.113098 866.027283,928.244690 
	C865.063599,926.090149 863.730042,924.023254 863.194885,921.767090 
	C859.073303,904.391968 855.327087,886.925110 851.005371,869.601135 
	C848.577271,859.868103 846.215576,849.922119 842.066223,840.878662 
	C838.902771,833.984131 832.974609,828.358215 827.955566,822.009827 
	C829.592712,799.698547 833.621887,777.990723 842.605896,757.510559 
	C870.755432,693.339905 918.961121,652.738220 987.713806,639.346130 
	C1052.664673,626.694580 1110.721558,643.813354 1159.507935,688.577454 
	C1195.409180,721.518677 1215.832397,763.014404 1221.120117,811.681885 
	C1221.425659,814.493591 1221.703247,817.308411 1222.017944,820.564148 
	C1216.942993,827.624268 1211.168945,833.844238 1206.960449,840.986755 
	C1203.659668,846.588867 1201.836182,853.211853 1200.166626,859.593262 
	C1196.659790,872.996887 1193.652222,886.532104 1190.505615,900.028625 
	C1188.526855,908.516113 1186.667358,917.031372 1183.690308,925.522766 
	C1183.465210,924.539734 1182.979126,923.536377 1183.054077,922.576721 
	C1184.263672,907.061462 1185.879883,891.568420 1186.649536,876.032959 
	C1186.972778,869.507690 1189.738770,862.635986 1185.210693,856.252380 
	C1183.224731,853.452576 1181.332642,851.698486 1178.619873,854.742615 
	C1175.272583,858.498779 1171.631836,862.287354 1169.457886,866.719177 
	C1166.866455,872.001892 1165.637817,877.964111 1163.925537,883.664001 
	C1162.261475,889.202820 1161.205566,889.718201 1156.063232,887.054077 
	C1153.472778,885.712097 1151.026489,883.995361 1148.305664,883.050598 
	C1147.244141,882.681885 1144.652832,883.675110 1144.385376,884.546997 
	C1142.360596,891.149353 1140.267578,897.793518 1139.086792,904.579651 
	C1136.139526,921.519531 1133.945435,938.591736 1130.923950,955.517212 
	C1127.539795,974.474670 1121.589111,992.651001 1111.925049,1010.094604 
	C1087.989258,1021.673523 1063.403198,1028.284790 1037.568359,1029.838623 
	C1004.265930,1031.841553 972.357605,1025.976807 941.981750,1012.033447 
	C940.739319,1011.463196 939.277893,1011.369934 937.918518,1011.054504 
M989.832214,888.500244 
	C989.832214,912.054260 989.832214,935.608276 989.832214,959.090942 
	C1013.737122,959.090942 1036.664062,959.090942 1060.182007,959.090942 
	C1060.182007,928.727417 1060.182007,898.663025 1060.182007,867.891907 
	C1090.954224,867.891907 1121.141113,867.891907 1151.359741,867.891907 
	C1151.359741,844.235474 1151.359741,821.294312 1151.359741,797.601929 
	C1120.921265,797.601929 1090.719849,797.601929 1059.966064,797.601929 
	C1059.966064,766.786743 1059.966064,736.719849 1059.966064,706.594727 
	C1036.330933,706.594727 1013.262817,706.594727 989.633850,706.594727 
	C989.633850,737.026550 989.633850,767.096741 989.633850,797.758911 
	C959.007812,797.758911 928.939697,797.758911 898.728882,797.758911 
	C898.728882,821.438049 898.728882,844.515259 898.728882,868.039246 
	C914.029419,868.039246 928.997742,868.039246 943.966064,868.039246 
	C959.077209,868.039246 974.188354,868.039246 989.832153,868.039246 
	C989.832153,874.928162 989.832153,881.214294 989.832214,888.500244 
z"/>
<path fill="#FAFDFD" opacity="1.000000" stroke="none" 
	d="
M1228.546631,901.914917 
	C1227.853882,906.306519 1226.791870,910.614563 1225.729858,914.922546 
	C1225.243530,914.866821 1224.757202,914.811035 1224.270996,914.755310 
	C1222.378052,906.249634 1226.384888,898.151978 1227.276367,889.459290 
	C1227.467163,891.693604 1227.434570,894.300171 1227.562622,896.898743 
	C1227.644043,898.549072 1227.964355,900.187500 1228.546631,901.914917 
z"/>
<path fill="#FAFDFD" opacity="1.000000" stroke="none" 
	d="
M1228.381348,885.723022 
	C1229.763062,876.588928 1231.402832,867.200439 1233.181030,857.435242 
	C1232.851196,862.214355 1232.649536,867.412842 1231.833740,872.513062 
	C1231.133667,876.889954 1229.731323,881.154480 1228.381348,885.723022 
z"/>
<path fill="#FAFDFD" opacity="1.000000" stroke="none" 
	d="
M1233.970581,853.352417 
	C1233.973755,853.320190 1233.881104,853.473755 1233.967285,853.476196 
	C1234.053467,853.478699 1233.967407,853.384583 1233.970581,853.352417 
z"/>
<path fill="#FAFDFD" opacity="1.000000" stroke="none" 
	d="
M938.098877,1011.349487 
	C939.277893,1011.369934 940.739319,1011.463196 941.981750,1012.033447 
	C972.357605,1025.976807 1004.265930,1031.841553 1037.568359,1029.838623 
	C1063.403198,1028.284790 1087.989258,1021.673523 1111.636475,1010.301880 
	C1108.255249,1016.417725 1105.039673,1023.039001 1100.796875,1028.919189 
	C1078.699829,1059.544678 1058.673340,1091.418335 1045.682495,1127.007080 
	C1038.576050,1146.474976 1033.837646,1166.806763 1028.014771,1186.744141 
	C1026.907349,1190.535400 1025.721680,1194.303711 1023.549988,1198.251587 
	C1023.051697,1196.828735 1022.302002,1195.442017 1022.091492,1193.977783 
	C1014.387512,1140.390381 992.011719,1092.997437 961.462585,1048.917358 
	C953.138550,1036.906372 945.975281,1024.090820 938.098877,1011.349487 
z"/>
<path fill="#0371BD" opacity="1.000000" stroke="none" 
	d="
M1183.528320,928.538086 
	C1183.473999,928.569885 1183.582764,928.506287 1183.528320,928.538086 
z"/>
<path fill="#FCFEFE" opacity="1.000000" stroke="none" 
	d="
M989.832153,888.000366 
	C989.832153,881.214294 989.832153,874.928162 989.832153,868.039246 
	C974.188354,868.039246 959.077209,868.039246 943.966064,868.039246 
	C928.997742,868.039246 914.029419,868.039246 898.728882,868.039246 
	C898.728882,844.515259 898.728882,821.438049 898.728882,797.758911 
	C928.939697,797.758911 959.007812,797.758911 989.633850,797.758911 
	C989.633850,767.096741 989.633850,737.026550 989.633850,706.594727 
	C1013.262817,706.594727 1036.330933,706.594727 1059.966064,706.594727 
	C1059.966064,736.719849 1059.966064,766.786743 1059.966064,797.601929 
	C1090.719849,797.601929 1120.921265,797.601929 1151.359741,797.601929 
	C1151.359741,821.294312 1151.359741,844.235474 1151.359741,867.891907 
	C1121.141113,867.891907 1090.954224,867.891907 1060.182007,867.891907 
	C1060.182007,898.663025 1060.182007,928.727417 1060.182007,959.090942 
	C1036.664062,959.090942 1013.737122,959.090942 989.832214,959.090942 
	C989.832214,935.608276 989.832214,912.054260 989.832153,888.000366 
z"/>
</svg>