<svg width="710" height="1024" viewBox="0 0 710 1024" fill="none" xmlns="http://www.w3.org/2000/svg">
<g clip-path="url(#clip0_0_55)">
<rect width="710" height="1024" fill="#869CA3"/>
<path fill-rule="evenodd" clip-rule="evenodd" d="M179.604 135.401C179.604 132.504 180.755 129.726 182.803 127.678C184.851 125.63 187.629 124.479 190.526 124.479C193.423 124.479 196.201 125.63 198.249 127.678C200.297 129.726 201.448 132.504 201.448 135.401C201.448 138.298 200.297 141.076 198.249 143.124C196.201 145.172 193.423 146.323 190.526 146.323C187.629 146.323 184.851 145.172 182.803 143.124C180.755 141.076 179.604 138.298 179.604 135.401ZM169.041 153.291C171.264 151.181 174.213 150.004 177.278 150.004C180.344 150.004 183.292 151.181 185.516 153.291L185.563 153.338L190.526 158.301L195.494 153.338L195.541 153.291C197.764 151.183 200.711 150.008 203.774 150.008C206.837 150.008 209.784 151.183 212.007 153.291C213.111 154.338 213.99 155.599 214.592 156.997C215.193 158.394 215.504 159.9 215.505 161.422C215.507 162.943 215.198 164.449 214.599 165.848C214 167.247 213.123 168.509 212.021 169.558L192.168 188.854C191.728 189.282 191.138 189.522 190.524 189.522C189.91 189.522 189.32 189.282 188.88 188.854L169.031 169.558C167.93 168.51 167.052 167.248 166.453 165.85C165.854 164.452 165.546 162.946 165.547 161.425C165.548 159.904 165.858 158.399 166.459 157.001C167.059 155.604 167.938 154.338 169.041 153.291Z" fill="white"/>
<path d="M285.485 147.369H277.441C277.131 145.65 276.555 144.138 275.713 142.832C274.871 141.525 273.84 140.417 272.619 139.506C271.399 138.595 270.033 137.907 268.52 137.443C267.025 136.979 265.435 136.747 263.75 136.747C260.708 136.747 257.984 137.512 255.578 139.042C253.188 140.571 251.298 142.814 249.905 145.771C248.53 148.727 247.843 152.337 247.843 156.599C247.843 160.896 248.53 164.523 249.905 167.479C251.298 170.436 253.197 172.67 255.603 174.183C258.01 175.695 260.717 176.451 263.725 176.451C265.392 176.451 266.973 176.228 268.469 175.781C269.981 175.317 271.348 174.638 272.568 173.744C273.788 172.85 274.82 171.759 275.662 170.47C276.521 169.164 277.114 167.668 277.441 165.984L285.485 166.01C285.055 168.605 284.221 170.994 282.984 173.177C281.763 175.343 280.191 177.216 278.266 178.798C276.358 180.362 274.175 181.573 271.717 182.433C269.259 183.292 266.578 183.722 263.673 183.722C259.101 183.722 255.028 182.639 251.452 180.473C247.877 178.29 245.058 175.171 242.996 171.114C240.951 167.058 239.928 162.22 239.928 156.599C239.928 150.962 240.959 146.123 243.022 142.084C245.084 138.028 247.903 134.917 251.478 132.751C255.053 130.568 259.118 129.477 263.673 129.477C266.475 129.477 269.087 129.88 271.511 130.688C273.952 131.479 276.143 132.648 278.085 134.195C280.027 135.724 281.635 137.598 282.906 139.815C284.178 142.015 285.038 144.533 285.485 147.369ZM305.923 183.877C303.414 183.877 301.145 183.413 299.117 182.484C297.089 181.539 295.482 180.173 294.296 178.385C293.127 176.597 292.542 174.406 292.542 171.811C292.542 169.576 292.972 167.737 293.832 166.293C294.691 164.849 295.851 163.706 297.312 162.864C298.773 162.022 300.406 161.386 302.211 160.956C304.015 160.527 305.855 160.2 307.728 159.977C310.1 159.702 312.025 159.478 313.503 159.306C314.981 159.117 316.056 158.816 316.726 158.404C317.396 157.991 317.732 157.321 317.732 156.393V156.212C317.732 153.961 317.096 152.216 315.824 150.979C314.569 149.741 312.695 149.122 310.203 149.122C307.608 149.122 305.562 149.698 304.067 150.85C302.589 151.984 301.566 153.248 300.999 154.64L293.754 152.99C294.614 150.583 295.868 148.641 297.518 147.163C299.186 145.668 301.102 144.585 303.268 143.914C305.433 143.227 307.711 142.883 310.1 142.883C311.681 142.883 313.357 143.072 315.128 143.45C316.915 143.811 318.582 144.482 320.129 145.461C321.693 146.441 322.974 147.842 323.971 149.664C324.968 151.469 325.466 153.815 325.466 156.702V183H317.938V177.586H317.628C317.13 178.583 316.382 179.562 315.385 180.525C314.388 181.487 313.108 182.287 311.544 182.923C309.98 183.559 308.106 183.877 305.923 183.877ZM307.599 177.689C309.73 177.689 311.552 177.268 313.065 176.426C314.595 175.583 315.755 174.483 316.546 173.125C317.353 171.75 317.757 170.281 317.757 168.717V163.612C317.482 163.887 316.949 164.145 316.159 164.385C315.385 164.609 314.5 164.806 313.503 164.978C312.506 165.133 311.535 165.279 310.59 165.417C309.645 165.537 308.854 165.64 308.218 165.726C306.723 165.915 305.356 166.233 304.119 166.68C302.898 167.127 301.919 167.771 301.179 168.614C300.458 169.439 300.097 170.539 300.097 171.914C300.097 173.822 300.801 175.265 302.211 176.245C303.62 177.208 305.416 177.689 307.599 177.689ZM335.734 183V143.399H343.185V149.69H343.597C344.319 147.558 345.591 145.883 347.413 144.662C349.252 143.425 351.332 142.806 353.652 142.806C354.134 142.806 354.701 142.823 355.354 142.857C356.024 142.892 356.548 142.935 356.927 142.986V150.36C356.617 150.274 356.067 150.18 355.277 150.076C354.486 149.956 353.695 149.896 352.905 149.896C351.083 149.896 349.458 150.283 348.032 151.056C346.622 151.812 345.505 152.869 344.68 154.227C343.855 155.568 343.443 157.098 343.443 158.816V183H335.734ZM379.247 183.799C375.346 183.799 371.985 182.966 369.167 181.298C366.365 179.614 364.199 177.251 362.67 174.208C361.157 171.149 360.401 167.565 360.401 163.457C360.401 159.401 361.157 155.826 362.67 152.732C364.199 149.638 366.331 147.223 369.063 145.487C371.814 143.751 375.028 142.883 378.706 142.883C380.94 142.883 383.106 143.253 385.203 143.992C387.3 144.731 389.182 145.891 390.849 147.472C392.517 149.054 393.831 151.108 394.794 153.634C395.756 156.144 396.238 159.195 396.238 162.787V165.52H364.758V159.745H388.684C388.684 157.716 388.271 155.92 387.446 154.356C386.621 152.775 385.461 151.529 383.965 150.618C382.487 149.707 380.751 149.251 378.758 149.251C376.592 149.251 374.701 149.784 373.085 150.85C371.487 151.898 370.249 153.273 369.373 154.975C368.513 156.659 368.084 158.49 368.084 160.467V164.978C368.084 167.625 368.548 169.877 369.476 171.733C370.421 173.59 371.736 175.008 373.421 175.987C375.105 176.95 377.073 177.431 379.325 177.431C380.786 177.431 382.118 177.225 383.321 176.812C384.524 176.383 385.564 175.747 386.441 174.904C387.317 174.062 387.987 173.022 388.452 171.785L395.748 173.1C395.163 175.248 394.115 177.13 392.602 178.746C391.107 180.344 389.225 181.591 386.956 182.484C384.705 183.361 382.135 183.799 379.247 183.799ZM405.41 183V130.198H413.376V176.142H437.302V183H405.41ZM445.771 183V143.399H453.48V183H445.771ZM449.664 137.289C448.324 137.289 447.172 136.842 446.21 135.948C445.264 135.037 444.792 133.954 444.792 132.699C444.792 131.427 445.264 130.345 446.21 129.451C447.172 128.54 448.324 128.084 449.664 128.084C451.005 128.084 452.148 128.54 453.093 129.451C454.056 130.345 454.537 131.427 454.537 132.699C454.537 133.954 454.056 135.037 453.093 135.948C452.148 136.842 451.005 137.289 449.664 137.289ZM471.56 159.487V183H463.851V143.399H471.25V149.844H471.74C472.651 147.747 474.078 146.063 476.02 144.791C477.98 143.519 480.446 142.883 483.42 142.883C486.118 142.883 488.481 143.45 490.51 144.585C492.538 145.702 494.111 147.369 495.228 149.587C496.345 151.804 496.904 154.545 496.904 157.811V183H489.195V158.739C489.195 155.869 488.447 153.626 486.952 152.01C485.456 150.377 483.402 149.561 480.79 149.561C479.002 149.561 477.412 149.947 476.02 150.721C474.645 151.494 473.554 152.629 472.746 154.124C471.955 155.602 471.56 157.39 471.56 159.487ZM514.332 169.568L514.281 160.157H515.621L531.4 143.399H540.63L522.634 162.478H521.422L514.332 169.568ZM507.242 183V130.198H514.951V183H507.242ZM532.251 183L518.071 164.179L523.382 158.791L541.713 183H532.251Z" fill="white"/>
<ellipse cx="350.006" cy="804.5" rx="506.64" ry="475.509" fill="#B0B9BC"/>
<circle cx="355.5" cy="804.5" r="565.85" stroke="#B0B9BC" stroke-width="29.2997"/>
</g>
<defs>
<clipPath id="clip0_0_55">
<rect width="710" height="1024" fill="white"/>
</clipPath>
</defs>
</svg>
